<?xml version="1.0" encoding="UTF-8"?>
<svg id="Layer_2" data-name="Layer 2" xmlns="http://www.w3.org/2000/svg" viewBox="0 0 581 166.54">
  <defs>
    <style>
      .cls-1 {
        fill: #2f2f2f;
      }

      .cls-1, .cls-2, .cls-3 {
        stroke-width: 0px;
      }

      .cls-2 {
        fill: #7f8267;
      }

      .cls-3 {
        fill: #c8b89e;
      }
    </style>
  </defs>
  <g id="Layer_1-2" data-name="Layer 1">
    <g>
      <g>
        <path class="cls-1" d="M192.1,86.37l-18.43,45.5-.89,2.29h-5.48l-13.9-32.23-13.33,29.94-.89,2.29h-5.48l-18.59-47.26-.21-.53h6.28l17.73,45.24,13.81-31.21-5.98-14.03h6.26l19.59,45.24,18.01-44.95.11-.28h1.38Z"/>
        <path class="cls-1" d="M233.15,86.09l-15.33,24.57c-.23.34-.35.73-.35,1.13l-.03,22.35h-5.73l.11-18.65c0-.4-.12-.79-.33-1.1l-16.63-26.84-.9-1.44h6.89s14.73,24.08,14.73,24.08l13.78-22.07,1.23-2h2.56Z"/>
        <path class="cls-1" d="M276.29,86.17l-.4,1.25h-17.67v46.74h-5.73v-46.74h-17.67l-.42-1.25h41.89Z"/>
        <path class="cls-1" d="M311.31,130.71l.91.94c-3.81,2.13-8.09,3.25-12.44,3.25-14.16,0-26.12-11.35-26.12-24.79s11.96-24.79,26.12-24.79c5.01,0,9.83,1.45,14,4.19l-1.77,1.83c-4.96-3.7-10.84-5.24-16.65-4.35-5.15.79-9.43,3.43-12.38,7.62-3.54,5.03-4.8,11.92-3.46,18.9,2.55,13.24,12.93,21.53,24.67,19.72,2.51-.39,4.9-1.23,7.12-2.51Z"/>
        <path class="cls-1" d="M362.18,86.23v47.94h-5.8v-20.56h-29.82v20.56h-5.85v-47.93s5.83,0,5.83,0l.02,26.12h29.82v-26.12s5.68,0,5.68,0h0s.08,0,.13,0Z"/>
        <path class="cls-1" d="M414.04,86.32v47.85h-3.29l-36.37-39.08-.02,39.08h-1.26v-47.85h1.95l37.74,40.39v-40.39h1.24Z"/>
        <path class="cls-1" d="M430.72,86.32v47.84h-5.76v-47.84s5.76,0,5.76,0Z"/>
        <path class="cls-1" d="M447.21,132.73h25.95l-1.08,1.44h-30.49v-47.83s31.8,0,31.8,0l-1.25,1.27h-24.94v18.42h25.51l-1,1.25h-24.51v25.46Z"/>
        <path class="cls-1" d="M521.64,86.32v47.85h-3.29l-36.37-39.08-.02,39.08h-1.26v-47.85h1.95l37.74,40.39v-40.39h1.24Z"/>
        <path class="cls-1" d="M538.32,86.32v47.84h-5.76v-47.84s5.76,0,5.76,0Z"/>
        <path class="cls-1" d="M554.81,132.73h25.95l-1.08,1.44h-30.49v-47.83s31.8,0,31.8,0l-1.25,1.27h-24.94v18.42h25.51l-1,1.25h-24.51v25.46Z"/>
      </g>
      <g>
        <g>
          <path class="cls-2" d="M23.27,112.3c-.92,0-1.29-.57-1.43-.94-.79-2.06-.33-3.88.11-5.65.26-1.01.52-2.05.55-3.14.03-1.25,1.04-2.88,2.21-4.76,1.6-2.57,3.37-5.42,2.84-7.59-.58,1.89-2.01,5.09-5.13,5.67l-.61.11v-.63c0-.08.01-1.01.63-2.57-1.49,2.32-2.85,4.34-3.57,5.31-1.49,2.01-6.73,8.47-11.63,7.11-3.28-.9-3.68-1.86-3.9-3.11-.05-.3-.1-.56-.23-.82-.27-.51-.41-.96-.52-1.3-.06-.2-.14-.44-.19-.5-.69.23-1-.12-1.11-.27-.36-.54-.07-1.42.89-2.71.37-.49,1.44-1.37,2.8-2.37-.67.37-1.25.71-1.7.98-.36.22-1.45.87-2.27.32-1.03-.69-.8-2.65-.37-5.35.19-1.23-.09-1.61-.31-1.92-.54-.75-.42-1.25.58-2.36.42-.47.81-.94,1.19-1.41,1.36-1.66,2.64-3.22,4.96-4.13,1.06-.41,2-1.02,2.83-1.61-1.17-.43-2.35-1.04-3.49-1.84-2.18-1.53-2.97-5.09-1.66-7.39l.84-5.33.55.14c.12.03,1.71.44,3.37,1.1-.97-.57-1.89-1.06-2.56-1.39-.92-.46-1.93-1.68-1.55-4.91,0-.12-.03-.3-.08-.57-.73-3.95-.83-5.74-.37-6.4.12-.17.15-.52.19-.9.1-1.05.26-2.63,2.47-3.51,2.92-1.15,7.67,3.13,8.45,3.86,1,.49,9.89,5.27,11.64,19.27.04.24.83,5.23.58,9.68.7-.75,1.72-1.21,2.56-1.25.69-.04,1.17.2,1.42.64.13-.15.26-.31.41-.48.58-.7,2.56-2.22,4.65-3.83,1.79-1.38,3.65-2.81,4.38-3.54.93-.92,8.56-7.77,11.51-7.77.27,0,.53,0,.79-.01,1.27-.03,2.38-.05,3.08.71.55.58.73,1.53.59,2.99-.23,2.38-1.54,3.57-2.81,4.72-.8.72-1.62,1.47-2.24,2.55-.8,1.4-2.43,2.72-4.02,4-1.77,1.43-3.6,2.92-3.83,4.21-.35,1.97-2.23,3.77-3.84,4.61-.88.46-1.65.66-2.45.64.44,1.58.88,4.92-1.87,7.82-2.81,2.98-2.71,5.02-2.64,6.38.01.29.03.54.01.77-.08,1.48-7.24,8.13-10.3,8.61-.15.02-.28.03-.41.03ZM27.06,87.51l.73.9c2.26,2.8-.21,6.76-2.18,9.95-1.05,1.68-2.04,3.27-2.06,4.24-.03,1.2-.31,2.3-.58,3.37-.42,1.68-.83,3.27-.15,5.02.06.15.15.31.55.27,2.56-.17,9.3-6.5,9.59-7.68,0-.17,0-.39-.02-.63-.07-1.44-.2-3.84,2.92-7.14,3.23-3.43,1.44-7.42,1.36-7.59l-.6-1.29,1.29.6c.6.28,1.53.14,2.54-.39,1.67-.87,3.05-2.5,3.29-3.87.3-1.68,2.19-3.21,4.2-4.84,1.51-1.22,3.07-2.48,3.77-3.71.7-1.22,1.59-2.02,2.45-2.8,1.22-1.11,2.28-2.07,2.47-4.05.1-1.11,0-1.84-.32-2.18-.39-.42-1.23-.39-2.3-.38-.26,0-.53.01-.81.01-2.14,0-8.92,5.6-10.78,7.46-.78.78-2.58,2.17-4.48,3.63-1.96,1.51-3.98,3.06-4.48,3.67-.53.64-.97,1.13-1.28,1.47-.41.95-1.36,2.14-2.84,3.56-4.82,4.62-6.06,8.12-6.38,9.57,3.08-1.21,3.9-5.96,3.91-6.01l.19-1.14ZM2.43,98.51c.77,0,.99.67,1.15,1.18.1.31.22.7.45,1.13.21.4.28.79.33,1.12.14.8.26,1.49,3.15,2.28,4.26,1.17,9.13-4.85,10.52-6.73,1.84-2.47,6.9-10.36,8.85-14.26.98-4.63-.22-12.2-.23-12.27-1.74-13.94-11.03-18.46-11.13-18.51l-.14-.09c-1.38-1.3-5.38-4.51-7.41-3.7-1.62.65-1.72,1.67-1.82,2.65-.05.51-.1,1-.37,1.39-.14.23-.26,1.28.54,5.62.07.37.1.62.1.66,0,.03,0,.1-.02.21-.31,2.63.36,3.54.98,3.85.07.03,6.59,3.31,8.03,5.55,1.04,1.62,1.95,2.36,1.96,2.36l.77.61-.95.29c-1.56.46-4.43-3-4.99-3.7-.93-1.16-4.13-2.26-5.82-2.74l-.74,4.48c-.99,1.63-.58,4.76,1.31,6.09,1.26.88,2.6,1.54,3.91,1.92.89-.68,1.61-1.21,2.27-1.32.84-.13,1.67.35,2.06.87.29.38.35.81.18,1.16-.22.46-.78.71-1.65.73-.85.03-1.75-.08-2.65-.3-1.01.76-2.22,1.63-3.69,2.2-2.06.8-3.26,2.27-4.53,3.81-.39.48-.79.97-1.23,1.45-.59.65-.63.85-.63.88,0,.02.07.11.12.17.28.39.76,1.05.5,2.7-.2,1.28-.63,3.95-.07,4.32.14.09.51.03,1.16-.35,2.75-1.65,10.54-5.72,10.62-5.76l.52.9c-2.71,1.74-9.95,6.52-10.87,7.76-.51.69-.72,1.14-.79,1.38.07-.01.14-.01.21-.01ZM27.76,83.81c-.51,1.01-1.2,2.24-1.97,3.56.78-.94,1.71-1.95,2.82-3.02.63-.6,1.12-1.12,1.5-1.57l-2.35,1.03ZM30.94,80.29s-.05,0-.07,0c-.85.04-2.01.75-2.31,1.69-.04.12-.09.26-.15.41l2.61-1.14c.06-.06.15-.15.26-.28.13-.37.07-.53.07-.55-.04-.1-.23-.14-.41-.14ZM12.23,78.22c.51.08,1.01.11,1.5.1.61-.02.75-.16.75-.16,0,0-.08-.11-.28-.27-.27-.2-.61-.32-.85-.27-.28.05-.67.28-1.11.6ZM13.48,68.04c.4.47.79.88,1.15,1.24-.03-.04-.06-.08-.08-.13-.21-.33-.59-.71-1.07-1.11Z"/>
          <path class="cls-2" d="M31.67,78.76l-.96-.39s1.01-2.52,1.14-5.3c.03-.55,0-1.22-.01-1.96-.1-3.31-.23-7.85,3.08-10.07l.58.86c-2.83,1.91-2.71,6.11-2.62,9.18.02.77.04,1.47.01,2.04-.14,2.96-1.17,5.53-1.22,5.64Z"/>
          <path class="cls-2" d="M32.53,78.84l-.89-.54c.08-.12,1.86-3.06,3.22-4.21.3-.25.79-.51,1.4-.84,2.41-1.29,6.43-3.46,5.76-8.17l1.03-.15c.78,5.43-3.82,7.9-6.29,9.23-.54.29-1.01.54-1.22.72-1.23,1.04-2.99,3.93-3.01,3.96Z"/>
          <path class="cls-2" d="M35.77,50.53c-.32,0-.62-.13-.83-.39-.55-.67-.47-2.25,1.56-4.51.79-.89,1.42-1.92,1.91-2.91-2.15,2.4-5.09,4.01-8.69,4.73-6.13,1.23-12.44-.44-13.58-1.5-1.14-1.06-.75-2.03-.48-2.74.25-.64.37-.99,0-1.5-1.1-1.49-1.09-3.03.02-4.33.46-.53.56-1.25.73-2.33.05-.33.1-.68.17-1.05.28-1.61,1.18-2.27,1.83-2.75.11-.08.21-.16.31-.24.46-.38.88-1.83.88-3.04,0-1.49,1.15-2.06,2.07-2.52l.18-.09c.14-.09.43-.62.64-1,.22-.39.46-.84.75-1.26-.06-.16-.11-.32-.16-.47l-.13-.37c-.48-1.42.01-2.04.54-2.69.52-.64,1.16-1.44,1.22-3.61.11-4.05.95-10.63,2.23-12.47.29-.41.66-.65,1.08-.7.93-.13,1.86.7,2.93,1.64.55.48,1.12.99,1.69,1.36.55.35,1.13.78,1.75,1.29-.08-2.67-.03-4.77,1.13-6C36.19.38,37.16.03,38.48,0c.02,0,.05,0,.08,0,6.23,0,8.54,14.24,9.36,22.76.41,4.24-1.22,10.24-2.09,13.02.61-.34,1.32-.58,1.9-.37.35.13.79.47.9,1.36.1.83-.08,1.49-.55,1.98-.49.51-1.18.68-1.69.73.03.67-.15,1.33-.52,1.88-.4.58-1.21,1.32-2.81,1.52-1.96.24-2.29,1.15-2.3,1.19-.66,4.09-3.33,5.7-4.21,6.23-.26.16-.54.24-.79.24ZM41.26,37.08l-.36,1.76c-.04.18-.95,4.5-3.63,7.49-1.64,1.83-1.7,2.95-1.53,3.15.01.02.13.01.28-.08,1.35-.81,3.2-2.27,3.73-5.58.06-.22.54-1.65,3.19-1.98.96-.12,1.67-.49,2.07-1.08.33-.48.43-1.07.28-1.67l-.18-.7.73.06c.26.02,1.08,0,1.49-.43.24-.25.32-.62.26-1.12-.02-.17-.08-.46-.23-.51-.39-.14-1.44.47-2.18,1.13l-1.51,1.35.67-1.91c.03-.09,3.05-8.75,2.53-14.1-.5-5.13-2.57-21.82-8.33-21.82h-.06c-1.03.02-1.76.27-2.22.75-.98,1.03-.91,3.25-.82,6.05,0,.06,0,.12,0,.19,1.95,1.87,4.02,4.59,5.61,8.52,2.55,6.3.62,19.22.54,19.77l-.15.95-.21-.19ZM23.69,24.36c-.1.17-.19.34-.28.51-.39.71-.68,1.23-1.09,1.44l-.18.09c-.95.47-1.49.78-1.49,1.59,0,1.36-.44,3.18-1.26,3.85-.11.09-.23.18-.35.27-.59.44-1.21.9-1.43,2.09-.06.37-.12.71-.16,1.02-.18,1.17-.31,2.09-.97,2.85-.8.94-.79,1.93.02,3.04.73.99.39,1.86.14,2.49-.26.66-.4,1.02.21,1.59.81.75,6.76,2.43,12.67,1.25,4.97-1,8.46-3.66,10.39-7.91l.85-1.88h-.01c-.39-.37-9.65-8.83-7.11-18.59.91-3.49.88-6.81.79-9.55-.84-.77-1.64-1.36-2.36-1.83-.64-.41-1.24-.94-1.81-1.45-.77-.68-1.61-1.44-2.12-1.39-.05,0-.18.02-.35.27-1.03,1.46-1.93,7.49-2.05,11.9-.07,2.52-.86,3.51-1.45,4.24-.47.58-.66.82-.36,1.7l.09.27c.33-.28.7-.5,1.13-.58.73-.16,1.53.09,2.35.73,3.19,2.47,9.15,12.79,9.4,13.23l.39.68-.78.09c-3.04.36-5.69-2.26-7.63-4.18-.65-.64-1.2-1.19-1.65-1.5-1.51-1.07-2.69-3.86-3.56-6.3ZM24.41,23.29c.82,2.37,2.04,5.53,3.44,6.52.51.36,1.1.94,1.78,1.61,1.59,1.57,3.7,3.65,5.94,3.89-1.47-2.48-6.14-10.18-8.69-12.15-.57-.44-1.07-.62-1.5-.53-.36.07-.68.32-.96.66ZM35.51,9.55c.05,2.58-.03,5.58-.86,8.75-1.98,7.59,3.95,14.62,6.08,16.83.4-3.21,1.43-13.15-.61-18.19-1.32-3.26-2.98-5.65-4.61-7.39Z"/>
          <path class="cls-2" d="M47.81,36.32l-.58-.86s4.77-3.29,5.79-8.18l1.02.21c-1.1,5.31-6.02,8.69-6.23,8.83Z"/>
          <path class="cls-2" d="M48.44,36.94l-.75-.72c.2-.2,4.89-5,9.45-5.37l.08,1.04c-4.18.34-8.74,5.01-8.79,5.05Z"/>
          <path class="cls-2" d="M67.01,59.02c-1.73-2.13-7.41-5.41-10.47-7.18l-1.15-.67c-.7-.41-1.31-.54-1.82-.36-.75.25-1.1,1.06-1.1,1.07l-.96-.39c.02-.05.52-1.25,1.72-1.65.82-.27,1.72-.12,2.69.45l1.14.66c3.33,1.92,8.9,5.15,10.75,7.42l-.81.66Z"/>
          <path class="cls-2" d="M63.98,133.14c-2.24,0-3.92-1.08-4.73-3.06-1.24-2.99-.12-7.29,2.59-10,1.8-1.8,2.49-3.67,1.9-5.11-.52-1.24-1.91-2.02-3.62-2.02h-5.45l-.15-.24c-.52-.83-1.03-1.56-1.55-2.24h0c-5.4-2-6.49-5.77-6.54-5.93l-.26-.96c-.73-.19-1.16-.43-1.2-.46l-.82-.47.84-.44c.43-.23,2.27-2.29,3.74-3.94,1.48-1.66,3.01-3.38,3.92-4.2,1.84-1.67,3.9-1.12,6.3-.48.38.1.77.21,1.18.31.28.06.5.05.63-.06.19-.15.29-.52.28-1.02-.02-1.59-1.03-3.77-2.01-4.34-.53-.31-1.33-.51-2.11-.71-1.39-.35-2.83-.71-3.37-1.79-.29-.6-.26-1.33.11-2.18.35-.82.79-1.28,1.33-1.42.86-.21,1.64.43,2.56,1.17.85.69,1.81,1.48,2.86,1.56,1.49.08,2.06-.58,2.74-1.36.51-.58,1.08-1.24,2.03-1.52.66-.19,1.16-.11,1.46.27.31.39.26.97.1,1.51.77-.35,1.29-.79,1.55-1.33.44-.89.28-2.1-.55-4.18-.26-.66-.56-1.34-.88-2.06-1.63-3.72-3.66-8.36-1.65-13.13,0,0,0-.01,0-.01h0s.02-.05.02-.05c-.46-.48-.79-1.28-.39-2.59.47-1.58.87-1.86,1.2-1.93.26-.06.49.04.65.23.52.6.28,2.36-.22,3.88.76.29,1.84.22,2.25.16l.39-.06.16.37c2.88,6.51,4.39,6.61,7.41,6.81,1.06.07,2.26.15,3.75.49,3.56.8,4.49,5.13,5.1,8,.15.68.32,1.5.48,1.88.1-.13.27-.38.5-.83.71-1.38.32-3.34-1.14-5.84-2.54-4.3-7.44-8.55-7.49-8.59l-.16-.13-.02-.2c-1.27-11.97,7.28-18.83,14.15-24.34,3.51-2.82,6.55-5.25,7.55-7.77,2.31-5.81-.45-8.45-4.27-12.11-1.03-.98-2.09-2-3.16-3.17-2.6-2.86-2.09-4.15-1.01-5.8.84-1.28,1.79-2.74-.09-6.49-1.09-2.17-2.35-3.36-3.74-3.55-2.52-.34-5.02,2.48-6.39,3.99l-.27.3c-1.46,1.63-4.05,6.65-5.14,10.56h0s0,0,0,0c.21.36.4.67.55.91.66.98,1.42,2.08,2.19,3.18,1.17,1.67,2.37,3.39,3.17,4.7,1.33,2.16,2.32,5.72,2.76,8.11.1.56.24.98.36,1.35.4,1.23.58,2.04-.39,4.52-.26.65-.71,1.64-1.27,2.87-2.24,4.92-6.42,14.08-6.46,20.03-.01,1.65-.16,3.17-1.14,3.18h0c-1.82,0-3.81-8.11-3.93-12.83-.07-2.74-.19-5.35-.3-7.8-.19-3.98-.34-7.41-.25-10.25.07-2.43.9-5.34,1.7-8.15.75-2.61,1.45-5.08,1.45-6.84,0-.76.15-1.72.45-2.83-1.35-2.4-3.39-6.59-4.62-9.12-.54-1.1-1.04-2.15-1.13-2.28-.01-.02-2.07-2.91-5.11-2.91h-.08c-1.22.01-2.76,2.21-3.16,12.6-.08,2.35.15,5.73.35,8.7.13,1.94.24,3.61.26,4.75.03,1.54.84,4.36,1.69,7.34.69,2.42,1.41,4.93,1.84,7.15.53,2.77,2.51,8.6,5.58,16.42l-.97.38c-2.18-5.57-4.93-12.98-5.63-16.61-.42-2.18-1.13-4.66-1.82-7.07-.87-3.05-1.7-5.93-1.73-7.61-.01-1.12-.13-2.86-.26-4.7-.2-3-.43-6.4-.35-8.81.24-6.31.94-13.56,4.19-13.6.03,0,.06,0,.09,0,3.05,0,5.35,2.44,5.98,3.39.11.17.45.86,1.19,2.39,1.08,2.22,2.8,5.74,4.1,8.16,1.25-3.87,3.66-8.42,5.08-10l.27-.3c1.49-1.65,4.26-4.72,7.3-4.33,1.75.24,3.28,1.62,4.53,4.12,2.15,4.29.93,6.16.03,7.52-.84,1.28-1.35,2.05.91,4.53,1.04,1.14,2.09,2.15,3.1,3.12,3.96,3.79,7.09,6.79,4.53,13.25-1.11,2.78-4.24,5.29-7.86,8.2-6.64,5.32-14.88,11.93-13.79,23.21.88.78,5.15,4.65,7.55,8.71,1.66,2.83,2.05,5.13,1.17,6.84-.5.97-.92,1.61-1.58,1.52-.76-.1-.97-1.07-1.34-2.83-.56-2.61-1.4-6.55-4.31-7.2-1.41-.32-2.57-.4-3.59-.46-3.42-.23-5.23-.63-8.14-7.08-.54.05-1.53.06-2.37-.25-1.74,4.37.08,8.53,1.69,12.2.32.73.62,1.43.89,2.09.69,1.73,1.24,3.55.52,5.02-.51,1.04-1.59,1.78-3.29,2.26l-1.2.34.6-1.09c.31-.57.54-1.27.48-1.49-.02.01-.13.01-.35.07-.66.2-1.07.66-1.54,1.21-.76.87-1.62,1.85-3.6,1.71-1.38-.1-2.52-1.04-3.44-1.79-.64-.52-1.3-1.06-1.65-.97-.2.05-.42.34-.63.82-.25.56-.29.99-.13,1.31.32.65,1.52.95,2.69,1.24.85.21,1.72.44,2.38.82,1.42.82,2.51,3.43,2.52,5.22,0,.41-.04.77-.15,1.07.49-.33,1.21-.58,2.4-.58,3.68,0,11.3,7.63,12.16,8.51l.34.35-.33.36c-.05.06-.1.11-.15.16l.72.13-.31.62c-.17.34-4.22,8.25-16.2,8.25-2.18,0-4.17-.23-5.92-.68.2.29.4.6.61.92h4.88c2.15,0,3.9,1.02,4.58,2.66.77,1.85,0,4.13-2.12,6.24-2.43,2.44-3.45,6.25-2.36,8.87.46,1.1,1.48,2.41,3.77,2.41,5.04,0,20.33-7.51,32.86-24.85,4.94-6.83,7.56-21.58,7.84-23.24l.05-.25,1.03.18-.06.27c-.28,1.67-2.94,16.64-8.02,23.66-11.92,16.5-27.23,25.28-33.71,25.28ZM53.58,109.59c1.96.69,4.3,1.04,6.96,1.04,9.37,0,13.67-5.23,14.89-7.05-.05,0-.1-.02-.15-.02-3.47,2.51-7.67.56-10.59-1.19-5.19-.25-8.26.23-11.44.82-1.15.22-2.23.34-3.2.36-1.37.36-2.55.31-3.43.14l.5.24c.13.06,3.24,1.6,6.45,5.66ZM48.24,105.85c.59.83,1.55,1.85,3.1,2.73-1.17-1.24-2.26-2.14-3.1-2.73ZM67.16,102.53c2.1,1.02,4.4,1.65,6.48.77-2.29-.34-4.44-.59-6.48-.77ZM48.33,102.42c.4.05.93.09,1.58.08.3-.1.58-.18.86-.31,6.26-2.62,10.81-3.05,13.56-1.29l.27.17c.13.09.27.17.41.26,3.07.17,6.35.54,10.01,1.12.11-.09.23-.19.34-.29-2.5-2.48-8.44-7.83-11.06-7.83-1.66,0-2.02.51-2.41,1.05-.37.52-.81,1.18-2.22,1.06-1.23-.1-1.87-.44-2.44-.74-.62-.32-1.15-.6-2.48-.6-1.03,0-1.88,1.37-2.86,2.96-.94,1.53-1.99,3.23-3.55,4.35ZM51.53,96.67c-.65.7-1.36,1.5-2.06,2.29-1.33,1.49-2.35,2.63-3.06,3.35l.35-.16c1.93-.88,3.16-2.87,4.24-4.62.18-.29.36-.58.53-.86ZM60.13,100.87c-1.56,0-3.41.34-5.55,1.02,2.31-.39,4.72-.68,8.11-.63-.74-.26-1.59-.39-2.56-.39ZM54.82,94.07c1.53.01,2.22.37,2.88.72.53.28,1.03.54,2.04.62.72.04.94-.14,1.22-.53-.28.1-.65.14-1.12.03-.42-.1-.82-.21-1.21-.31-1.51-.41-2.76-.73-3.82-.53ZM74.98,17.94c-.12.59-.17,1.1-.17,1.54,0,1.9-.72,4.44-1.49,7.12-.79,2.75-1.6,5.6-1.67,7.9-.09,2.81.07,6.22.25,10.17.11,2.45.23,5.08.3,7.82.13,5.08,1.95,10.64,2.81,11.68.08-.26.18-.82.19-2.01.04-6.17,4.28-15.46,6.55-20.46.55-1.21,1-2.19,1.25-2.82.88-2.25.7-2.81.37-3.82-.13-.4-.28-.86-.4-1.48-.47-2.48-1.46-5.85-2.63-7.76-.78-1.29-1.98-3-3.13-4.65-.77-1.1-1.54-2.2-2.2-3.2-.01-.02-.02-.03-.03-.05ZM65.9,60.75c-.02.07-.04.13-.06.21-.11.34-.15.62-.14.84.1-.39.16-.75.2-1.05Z"/>
          <path class="cls-2" d="M69.23,60.62c-.09-.28-.21-.57-.36-.9-1.95-4.26-9.04-12-11.41-12.91-.77-.3-1.36-.34-1.71-.13-.33.2-.37.62-.37.62l-1.04-.08c0-.09.08-.94.84-1.42.64-.41,1.53-.4,2.65.03,2.63,1.02,9.86,8.83,11.97,13.45.17.37.3.69.4,1.01l-.99.32Z"/>
          <path class="cls-2" d="M105.87,84.66c-.96,0-2.09-.24-3.38-.91-1.81-.94-3.7-2.43-5.71-4.01-3.56-2.79-7.23-5.68-10.62-5.68-.1,0-.2,0-.31,0l-.05-1.04c.12,0,.24,0,.36,0,3.75,0,7.57,3,11.26,5.9,1.97,1.55,3.83,3.01,5.56,3.9,1.84.96,3.5,1.06,4.94.29,1.44-.77,2.06-2.08,2.08-2.3.08-.92,1.26-1.23,2.05-1.43.11-.03.21-.05.29-.08.18-.27.63-.74,1.75-1.79l.17-.16c.19-.18.44-.44,4.98-.15,1.08.07,1.17-.39,1.25-1.27.03-.34.06-.66.22-.91.38-.61,1.86-.94,4.64-1.37l.31-.05c.12-.02.16-.05.16-.05,0-.08-.14-.48-.22-.69-.17-.45-.34-.9-.22-1.33.05-.17.14-.36.24-.56.35-.72.53-1.2-.11-1.84-1.15-1.16-1.11-2.4-1.07-3.4,0-.18.01-.35.01-.52v-.31c.01-1.27-.07-1.82-.65-1.88-1.5-.17-1.4-1.83-1.33-2.93.01-.25.03-.49.03-.71,0-.75-1.34-1.16-1.36-1.16l-.21-.06-.53-1.01c-17.27-2.1-27.29,6.35-27.39,6.44l-.73-.73c6.82-7.96,17.27-8.9,22.28-9.35,1.18-.11,2.11-.19,2.54-.32.55-.17.8-.73.73-1.64-.14-1.71-1.29-3.46-1.76-3.53-1.6-.24-3.22-3.95-3.53-4.69-.02-.03-2.92-5.4-17.53.28-14.87,5.79-16.24,21.1-16.26,21.25l-1.04-.08c.01-.16,1.44-16.12,16.92-22.14,15.62-6.08,18.73,0,18.86.26.79,1.9,2.05,3.98,2.73,4.09,1.25.19,2.49,2.62,2.64,4.48.11,1.4-.42,2.39-1.45,2.71-.54.17-1.47.25-2.76.37-3.9.35-11.15,1-17.25,5.13,4.77-2.33,12.78-4.87,23.4-3.53l.27.03.58,1.1c.55.2,1.89.82,1.89,2.09,0,.24-.01.5-.03.78-.08,1.23-.04,1.78.4,1.83,1.6.18,1.59,1.83,1.58,2.92v.3c0,.18,0,.37-.02.56-.03.92-.07,1.79.77,2.62,1.19,1.19.64,2.34.31,3.02-.07.15-.14.28-.18.41-.02.1.11.45.19.66.2.52.42,1.11.13,1.6-.17.29-.46.47-.88.53l-.31.05c-.88.14-3.56.56-3.94.92,0,.03-.03.27-.04.43-.07.76-.22,2.34-2.35,2.22-2.79-.17-3.96-.13-4.26-.07l-.11.1c-1.07,1.01-1.45,1.4-1.56,1.55-.09.34-.49.45-.94.56-.78.2-1.21.37-1.27.51-.05.63-.95,2.2-2.56,3.09-.64.36-1.51.66-2.6.66Z"/>
          <path class="cls-2" d="M34.44,166.34l-.86-.59c9.79-14.32,8.28-31.75,5.13-42.28-3.08-2.35-5.26-4.99-5.22-7.72,0-.4.02-1.62.82-1.88.82-.26,1.57.74,1.82,1.08,1.08,1.44,2.38,4.24,3.49,7.93,7.09,5.23,19.12,9.18,19.29,9.24l-.32.99c-.68-.22-11.33-3.72-18.53-8.67,2.89,10.84,3.88,28.01-5.62,41.9ZM34.61,114.88c.01.06-.08.3-.08.88-.03,2.05,1.42,4.07,3.63,5.96-.29-.85-.59-1.65-.89-2.38-1.28-3.11-2.3-4.32-2.65-4.47Z"/>
        </g>
        <path class="cls-2" d="M86.16,163.34c-10.12-20.65,4.34-48.2,4.48-48.47l.92.49c-.15.27-14.36,27.35-4.47,47.52l-.93.46Z"/>
      </g>
      <g>
        <g>
          <path class="cls-2" d="M133.42,145.18c1.4,0,2.7.37,3.92,1.1,1.22.73,2.17,1.76,2.86,3.08s1.04,2.8,1.04,4.45-.35,3.14-1.04,4.46c-.69,1.33-1.65,2.36-2.86,3.1-1.21.74-2.5,1.11-3.85,1.11s-2.57-.36-3.74-1.09-2.1-1.77-2.8-3.12c-.71-1.35-1.06-2.85-1.06-4.5s.34-3.09,1.02-4.4c.68-1.31,1.62-2.33,2.8-3.08s2.42-1.11,3.7-1.11ZM133.6,146.04c-1.45,0-2.63.6-3.54,1.81-.9,1.21-1.35,3.18-1.35,5.91,0,2.96.46,5.01,1.39,6.14s2.07,1.7,3.43,1.7c.96,0,1.79-.26,2.52-.77s1.3-1.33,1.73-2.45c.43-1.12.64-2.59.64-4.41,0-1.98-.2-3.53-.6-4.65-.4-1.12-.98-1.94-1.72-2.48-.75-.54-1.58-.81-2.5-.81Z"/>
          <path class="cls-2" d="M152.83,145.53l4.1-.19v14.34c0,.56.11.96.32,1.2.21.24.53.36.96.36h.73v.84h-3.58l-.27-2.14c-.43.76-.92,1.33-1.49,1.72-.57.38-1.21.58-1.92.58-1.19,0-2.21-.5-3.05-1.5-.84-1-1.26-2.32-1.26-3.96,0-1.77.54-3.19,1.61-4.25.84-.83,1.81-1.24,2.91-1.24.67,0,1.27.17,1.81.5.53.33,1,.84,1.39,1.52v-5.92c0-.31-.12-.56-.36-.74-.24-.18-.62-.27-1.14-.27h-.75v-.84ZM152.18,152.21c-.81,0-1.44.33-1.92,1-.47.66-.71,1.78-.71,3.36,0,1.71.24,2.91.73,3.61s1.11,1.05,1.87,1.05c.81,0,1.51-.39,2.09-1.17s.87-1.92.87-3.42c0-1.42-.31-2.53-.93-3.35-.54-.72-1.2-1.07-1.99-1.07Z"/>
          <path class="cls-2" d="M167.04,151.4c.16.78.26,1.54.29,2.26.51-.82,1.05-1.4,1.62-1.75.57-.34,1.18-.51,1.85-.51.71,0,1.4.22,2.05.66.65.44,1.18,1.08,1.59,1.94.41.85.61,1.81.61,2.88,0,1.71-.5,3.1-1.5,4.17-.83.9-1.81,1.34-2.97,1.34-.65,0-1.25-.17-1.77-.5-.53-.33-1-.83-1.41-1.5v4.24c0,.33.08.56.23.69.2.18.48.27.84.27h.77v.79h-5.6v-.79h.77c.36,0,.63-.07.81-.21.18-.14.27-.33.27-.56v-11.03c0-.51-.12-.88-.37-1.09-.25-.21-.74-.33-1.48-.35v-.75l3.39-.19ZM170.29,152.42c-.81,0-1.5.39-2.06,1.17s-.84,1.92-.84,3.4.27,2.61.81,3.32c.54.72,1.24,1.07,2.08,1.07.79,0,1.4-.31,1.82-.92.54-.81.81-1.98.81-3.54s-.25-2.79-.74-3.48c-.49-.69-1.12-1.04-1.89-1.04Z"/>
          <path class="cls-2" d="M185.48,151.28c1.41,0,2.59.51,3.55,1.53s1.44,2.36,1.44,4.02c0,1.15-.21,2.13-.64,2.94-.43.81-1.04,1.45-1.83,1.92s-1.65.71-2.57.71c-1.36,0-2.51-.51-3.45-1.54-.94-1.03-1.42-2.36-1.42-4.01s.47-2.99,1.42-4.02,2.11-1.54,3.5-1.54ZM185.48,152.07c-.84,0-1.52.38-2.06,1.13-.54.76-.81,1.95-.81,3.59s.27,2.88.8,3.65c.53.77,1.22,1.15,2.06,1.15s1.58-.38,2.12-1.15c.54-.77.81-2.02.81-3.77,0-1.62-.27-2.79-.8-3.51s-1.24-1.08-2.13-1.08Z"/>
          <path class="cls-2" d="M203.67,158.96l.73.21c-.58,2.14-1.86,3.21-3.85,3.21-1.45,0-2.64-.48-3.57-1.44s-1.39-2.24-1.39-3.84c0-1.85.51-3.28,1.52-4.3,1.01-1.02,2.21-1.53,3.58-1.53,1.03,0,1.88.28,2.55.85s1.01,1.2,1.01,1.89c0,.42-.12.76-.38,1.04s-.55.41-.89.41-.62-.12-.85-.35c-.23-.23-.35-.51-.35-.84s.13-.64.38-.94c.12-.14.18-.25.18-.33,0-.22-.15-.43-.44-.63-.29-.21-.69-.31-1.19-.31-.91,0-1.6.33-2.07.99-.67.96-1.01,2.23-1.01,3.8s.3,2.63.9,3.4c.6.77,1.36,1.16,2.28,1.16,1.28,0,2.22-.82,2.84-2.46Z"/>
          <path class="cls-2" d="M210.44,151.59h8.31v.67l-6.59,8.97h3.21c.74,0,1.33-.23,1.77-.7s.78-1.32,1.02-2.58h.75l-.25,4.12h-8.82v-.77l6.58-8.92h-2.79c-.58,0-1.02.08-1.3.24s-.54.42-.74.79-.4,1-.58,1.91h-.83l.26-3.74Z"/>
          <path class="cls-2" d="M224.18,151.59l3.48-.21c.14.66.25,1.42.31,2.3.47-.76,1.02-1.33,1.66-1.71.64-.38,1.36-.57,2.16-.57.69,0,1.28.14,1.75.41.47.27.85.7,1.13,1.29.28.59.43,1.25.43,1.98v5.1c0,.38.09.65.26.81.17.16.46.24.86.24h.74v.84h-5.53v-.84h.53c.49,0,.84-.08,1.03-.24.19-.16.29-.39.29-.71v-4.49c0-.98-.15-1.7-.45-2.17-.42-.67-1.05-1.01-1.9-1.01s-1.55.34-2.11,1.02c-.56.68-.84,1.56-.84,2.65v3.88c0,.38.09.65.26.81.18.16.46.24.87.24h.73v.84h-5.55v-.84h.73c.37,0,.64-.08.83-.22.19-.15.29-.34.29-.56v-6.77c0-.45-.12-.79-.36-1.02-.24-.23-.59-.35-1.05-.35h-.54v-.73Z"/>
          <path class="cls-2" d="M241.64,151.59l4.17-.12v9.02c0,.25.06.42.18.53.17.15.39.22.65.22h1.19v.84h-5.96v-.84h1.11c.33,0,.57-.08.72-.24.15-.16.23-.39.23-.7v-6.6c0-.42-.12-.73-.36-.95-.24-.21-.59-.32-1.06-.32h-.86v-.84ZM244.55,145.34c.34,0,.63.13.88.38.25.25.38.55.38.9s-.12.63-.37.87c-.25.25-.54.37-.88.37s-.64-.12-.89-.37c-.25-.25-.38-.54-.38-.88s.13-.63.38-.88c.25-.25.54-.38.87-.38Z"/>
          <path class="cls-2" d="M256.66,151.44v10.02c0,1.46-.4,2.67-1.2,3.64-.8.96-1.69,1.44-2.66,1.44-.49,0-.87-.12-1.14-.36-.27-.24-.4-.57-.4-.99,0-.37.11-.66.32-.88s.49-.34.82-.34c.52,0,.86.34,1.02,1.02.05.22.1.36.16.42.05.06.13.08.25.08.13,0,.26-.06.39-.19.18-.19.32-.52.43-.97.13-.63.2-1.25.2-1.86v-8.83c0-.41-.13-.72-.38-.94-.25-.22-.63-.32-1.13-.32h-.95v-.78l4.29-.16ZM255.54,145.32c.37,0,.67.12.91.35.24.23.36.53.36.89s-.12.67-.36.91-.54.36-.9.36-.64-.12-.9-.38c-.25-.25-.38-.54-.38-.88s.13-.63.38-.88c.25-.25.55-.37.88-.37Z"/>
        </g>
        <g>
          <path class="cls-2" d="M294.23,145.53h11.27v.84l-9.45,14.87h3.59c1.03,0,1.87-.17,2.53-.5.66-.34,1.19-.84,1.59-1.5.41-.67.78-1.79,1.11-3.36h.78l-.3,6.21h-11.97v-.75l9.55-14.96h-3.42c-.93,0-1.66.11-2.17.32-.7.29-1.27.81-1.71,1.56-.44.75-.75,1.75-.93,3h-.78l.31-5.73Z"/>
          <path class="cls-2" d="M310.97,151.59l3.48-.21c.14.66.25,1.42.31,2.3.47-.76,1.02-1.33,1.66-1.71.64-.38,1.36-.57,2.16-.57.69,0,1.28.14,1.75.41.47.27.85.7,1.13,1.29.28.59.43,1.25.43,1.98v5.1c0,.38.09.65.26.81.17.16.46.24.86.24h.74v.84h-5.53v-.84h.53c.49,0,.84-.08,1.03-.24.19-.16.29-.39.29-.71v-4.49c0-.98-.15-1.7-.45-2.17-.42-.67-1.05-1.01-1.9-1.01s-1.55.34-2.11,1.02c-.56.68-.84,1.56-.84,2.65v3.88c0,.38.09.65.26.81.18.16.46.24.87.24h.73v.84h-5.55v-.84h.73c.37,0,.64-.08.83-.22.19-.15.29-.34.29-.56v-6.77c0-.45-.12-.79-.36-1.02-.24-.23-.59-.35-1.05-.35h-.54v-.73Z"/>
          <path class="cls-2" d="M339.71,160.92l.4.63c-.54.56-1.15.84-1.81.84-.51,0-.93-.14-1.28-.41-.35-.28-.65-.76-.91-1.46-.71.75-1.33,1.24-1.87,1.49s-1.18.38-1.94.38c-1.07,0-1.89-.23-2.45-.69-.56-.46-.84-1.05-.84-1.78,0-1.09.64-1.99,1.92-2.71s2.98-1.2,5.11-1.44v-1.59c0-.57-.23-1.05-.68-1.45-.46-.4-1.03-.6-1.73-.6-.65,0-1.21.13-1.68.4-.34.2-.5.4-.5.59,0,.11.09.29.27.53.22.3.32.56.32.79,0,.34-.11.61-.32.82s-.5.32-.85.32c-.37,0-.68-.13-.93-.38-.25-.25-.38-.58-.38-.97,0-.74.42-1.41,1.25-2.02.83-.61,1.92-.92,3.27-.92,1.25,0,2.2.27,2.85.81.66.54.98,1.21.98,1.98v5.73c0,.51.08.88.25,1.12.16.25.38.37.64.37.29,0,.6-.12.92-.36ZM336.04,156.5c-1.89.26-3.24.69-4.03,1.28-.59.45-.88,1.08-.88,1.9,0,.57.15,1.02.46,1.35.31.32.71.49,1.2.49.88,0,1.64-.33,2.29-1,.65-.67.97-1.5.97-2.51v-1.5Z"/>
          <path class="cls-2" d="M348.97,151.44v10.02c0,1.46-.4,2.67-1.2,3.64-.8.96-1.69,1.44-2.66,1.44-.49,0-.87-.12-1.14-.36s-.4-.57-.4-.99c0-.37.11-.66.33-.88.22-.22.49-.34.82-.34.52,0,.86.34,1.02,1.02.05.22.1.36.16.42.05.06.13.08.25.08.13,0,.26-.06.39-.19.18-.19.32-.52.42-.97.13-.63.2-1.25.2-1.86v-8.83c0-.41-.13-.72-.38-.94-.25-.22-.63-.32-1.13-.32h-.95v-.78l4.29-.16ZM347.85,145.32c.37,0,.67.12.91.35.24.23.36.53.36.89s-.12.67-.36.91c-.24.24-.54.36-.89.36s-.64-.12-.9-.38-.38-.54-.38-.88.13-.63.38-.88c.25-.25.55-.37.88-.37Z"/>
          <path class="cls-2" d="M361.43,145.53l4.09-.19v14.34c0,.56.11.96.32,1.2.21.24.53.36.96.36h.73v.84h-3.58l-.27-2.14c-.42.76-.92,1.33-1.49,1.72-.57.38-1.21.58-1.92.58-1.19,0-2.21-.5-3.05-1.5-.84-1-1.26-2.32-1.26-3.96,0-1.77.54-3.19,1.61-4.25.84-.83,1.81-1.24,2.91-1.24.67,0,1.27.17,1.81.5.53.33,1,.84,1.39,1.52v-5.92c0-.31-.12-.56-.36-.74-.24-.18-.62-.27-1.14-.27h-.75v-.84ZM360.78,152.21c-.81,0-1.45.33-1.92,1s-.71,1.78-.71,3.36c0,1.71.24,2.91.73,3.61.48.7,1.11,1.05,1.87,1.05.81,0,1.51-.39,2.09-1.17s.87-1.92.87-3.42c0-1.42-.31-2.53-.93-3.35-.54-.72-1.2-1.07-1.99-1.07Z"/>
          <path class="cls-2" d="M373.25,151.59h8.31v.67l-6.59,8.97h3.21c.74,0,1.33-.23,1.77-.7s.78-1.32,1.02-2.58h.75l-.25,4.12h-8.82v-.77l6.58-8.92h-2.79c-.58,0-1.02.08-1.3.24s-.54.42-.74.79-.4,1-.58,1.91h-.83l.26-3.74ZM375.79,149.83l-.28-.28,1.91-2.74c.52-.76.89-1.22,1.1-1.39s.43-.25.64-.25c.25,0,.46.09.65.27s.28.39.28.62c0,.37-.27.76-.79,1.15l-3.51,2.61Z"/>
          <path class="cls-2" d="M398.29,158.13c.46,1.29.99,2.18,1.59,2.68s1.34.74,2.22.74c.81,0,1.44-.18,1.87-.53.44-.35.65-.8.65-1.35,0-.31-.08-.59-.24-.82-.16-.24-.38-.41-.67-.53-.28-.12-1.02-.29-2.21-.51-1.14-.22-1.93-.46-2.38-.71-.45-.25-.8-.58-1.05-1.02s-.38-.9-.38-1.41c0-.77.26-1.47.77-2.09.66-.8,1.59-1.2,2.79-1.2.91,0,1.75.29,2.53.86l.74-.78h.46l.29,3.74h-.75c-.33-1.06-.77-1.82-1.33-2.29-.56-.47-1.25-.7-2.07-.7-.71,0-1.27.17-1.67.52s-.61.77-.61,1.27c0,.44.19.81.56,1.1.37.3,1.08.53,2.15.71,1.24.21,2.05.39,2.42.53.61.22,1.09.57,1.42,1.03.34.47.5,1.03.5,1.71,0,.92-.36,1.71-1.09,2.35-.73.64-1.65.96-2.77.96-1.04,0-2-.34-2.89-1.03l-.82.94h-.59l-.22-4.17h.75Z"/>
          <path class="cls-2" d="M411.1,151.59l4.17-.12v9.02c0,.25.06.42.18.53.17.15.39.22.65.22h1.19v.84h-5.96v-.84h1.11c.33,0,.57-.08.72-.24.15-.16.23-.39.23-.7v-6.6c0-.42-.12-.73-.36-.95-.24-.21-.59-.32-1.06-.32h-.86v-.84ZM414.01,145.34c.34,0,.63.13.88.38s.38.55.38.9-.12.63-.37.87-.54.37-.88.37-.64-.12-.89-.37-.38-.54-.38-.88.13-.63.38-.88.54-.38.87-.38Z"/>
          <path class="cls-2" d="M421.77,146.37v-.84l4.15-.19v6.37l1.98-1.77v1.04l-1.98,1.78v7.77c0,.21.06.37.19.48.19.15.41.22.68.22h1.11v.84h-5.94v-.84h1.05c.34,0,.6-.08.77-.25s.25-.4.25-.69v-6.1l-2.14,1.78v-1.03l2.14-1.78v-5.62c0-.37-.1-.65-.3-.82-.28-.24-.62-.36-1.02-.36h-.94Z"/>
          <path class="cls-2" d="M442.9,156.91h-7.51c.04,1.6.33,2.72.89,3.38.64.74,1.46,1.11,2.45,1.11,1.46,0,2.64-.83,3.52-2.5l.73.31c-1.09,2.12-2.66,3.18-4.72,3.18-1.4,0-2.58-.51-3.54-1.52-.96-1.01-1.44-2.31-1.44-3.89,0-1.7.47-3.08,1.42-4.12s2.11-1.57,3.49-1.57c1.01,0,1.89.26,2.63.78.74.52,1.29,1.27,1.67,2.25.26.69.4,1.55.41,2.6ZM435.39,156.11h4.54c.27,0,.48-.09.63-.27.15-.18.22-.49.22-.93,0-.82-.26-1.52-.77-2.09s-1.11-.86-1.81-.86c-.78,0-1.43.35-1.97,1.04-.54.69-.82,1.73-.84,3.12ZM438.19,161.96h.59c-.2.41-.3.79-.3,1.15,0,.67.23,1.22.68,1.64.45.42,1.04.63,1.75.63.41,0,.86-.09,1.35-.26l.24.37c-.57.34-1.04.58-1.42.7-.38.12-.78.18-1.21.18-.8,0-1.43-.21-1.89-.62s-.69-.93-.69-1.57c0-.89.3-1.63.91-2.24Z"/>
        </g>
        <g>
          <path class="cls-2" d="M474.49,145.53h8.55c1.27,0,2.35.22,3.23.67,1.1.57,2.04,1.51,2.81,2.83.77,1.32,1.16,2.88,1.16,4.69,0,1.49-.23,2.83-.69,4.03-.35.92-.89,1.72-1.62,2.41-.73.69-1.61,1.2-2.66,1.54-.78.25-1.83.38-3.13.38h-7.65v-.84h1.57c.4,0,.67-.06.82-.19.15-.13.23-.32.23-.59v-13.33c0-.23-.08-.42-.25-.55-.16-.14-.39-.21-.68-.21h-1.69v-.84ZM480.48,146.37c-.34,0-.58.07-.74.21s-.24.35-.24.64v13.2c0,.27.09.47.28.61s.5.21.95.21h1.41c1.26,0,2.37-.33,3.31-.97.62-.43,1.09-1.04,1.41-1.82.44-1.06.66-2.52.66-4.39,0-2.76-.48-4.78-1.44-6.06-.82-1.08-2.06-1.62-3.71-1.62h-1.88Z"/>
          <path class="cls-2" d="M496.88,151.59h8.31v.67l-6.59,8.97h3.21c.74,0,1.33-.23,1.77-.7s.78-1.32,1.02-2.58h.75l-.25,4.12h-8.82v-.77l6.58-8.92h-2.79c-.58,0-1.02.08-1.3.24s-.54.42-.74.79-.4,1-.58,1.91h-.83l.26-3.74Z"/>
          <path class="cls-2" d="M510.43,151.59l4.17-.12v9.02c0,.25.06.42.18.53.17.15.39.22.65.22h1.19v.84h-5.96v-.84h1.11c.33,0,.57-.08.72-.24.15-.16.23-.39.23-.7v-6.6c0-.42-.12-.73-.36-.95-.24-.21-.59-.32-1.06-.32h-.86v-.84ZM513.34,145.34c.34,0,.63.13.88.38s.38.55.38.9-.12.63-.37.87-.54.37-.88.37-.64-.12-.89-.37-.38-.54-.38-.88.13-.63.38-.88.54-.38.87-.38Z"/>
          <path class="cls-2" d="M532.59,160.92l.4.63c-.54.56-1.15.84-1.81.84-.51,0-.93-.14-1.28-.41-.35-.28-.65-.76-.91-1.46-.71.75-1.33,1.24-1.87,1.49-.54.25-1.18.38-1.94.38-1.07,0-1.89-.23-2.45-.69-.56-.46-.84-1.05-.84-1.78,0-1.09.64-1.99,1.92-2.71s2.98-1.2,5.11-1.44v-1.59c0-.57-.23-1.05-.68-1.45-.46-.4-1.03-.6-1.73-.6-.65,0-1.21.13-1.68.4-.34.2-.5.4-.5.59,0,.11.09.29.27.53.22.3.32.56.32.79,0,.34-.11.61-.32.82-.22.21-.5.32-.85.32-.37,0-.68-.13-.93-.38s-.38-.58-.38-.97c0-.74.42-1.41,1.25-2.02.83-.61,1.92-.92,3.27-.92,1.25,0,2.2.27,2.85.81.66.54.98,1.21.98,1.98v5.73c0,.51.08.88.25,1.12.16.25.38.37.64.37.29,0,.6-.12.92-.36ZM528.92,156.5c-1.89.26-3.24.69-4.03,1.28-.59.45-.88,1.08-.88,1.9,0,.57.15,1.02.46,1.35s.71.49,1.2.49c.88,0,1.64-.33,2.29-1,.65-.67.97-1.5.97-2.51v-1.5Z"/>
          <path class="cls-2" d="M537.51,146.37v-.84l4.15-.19v6.37l1.98-1.77v1.04l-1.98,1.78v7.77c0,.21.06.37.19.48.19.15.41.22.68.22h1.11v.84h-5.94v-.84h1.05c.34,0,.6-.08.77-.25s.25-.4.25-.69v-6.1l-2.14,1.78v-1.03l2.14-1.78v-5.62c0-.37-.1-.65-.3-.82-.28-.24-.62-.36-1.02-.36h-.94Z"/>
          <path class="cls-2" d="M559.88,160.92l.4.63c-.54.56-1.15.84-1.81.84-.51,0-.93-.14-1.28-.41-.35-.28-.65-.76-.91-1.46-.71.75-1.33,1.24-1.87,1.49-.54.25-1.18.38-1.94.38-1.07,0-1.89-.23-2.45-.69-.56-.46-.84-1.05-.84-1.78,0-1.09.64-1.99,1.92-2.71s2.98-1.2,5.11-1.44v-1.59c0-.57-.23-1.05-.68-1.45-.46-.4-1.03-.6-1.73-.6-.65,0-1.21.13-1.68.4-.34.2-.5.4-.5.59,0,.11.09.29.27.53.22.3.32.56.32.79,0,.34-.11.61-.32.82-.22.21-.5.32-.85.32-.37,0-.68-.13-.93-.38s-.38-.58-.38-.97c0-.74.42-1.41,1.25-2.02.83-.61,1.92-.92,3.27-.92,1.25,0,2.2.27,2.85.81.66.54.98,1.21.98,1.98v5.73c0,.51.08.88.25,1.12.16.25.38.37.64.37.29,0,.6-.12.92-.36ZM556.21,156.5c-1.89.26-3.24.69-4.03,1.28-.59.45-.88,1.08-.88,1.9,0,.57.15,1.02.46,1.35s.71.49,1.2.49c.88,0,1.64-.33,2.29-1,.65-.67.97-1.5.97-2.51v-1.5Z"/>
          <path class="cls-2" d="M569.14,151.44v10.02c0,1.46-.4,2.67-1.2,3.64-.8.96-1.69,1.44-2.66,1.44-.49,0-.87-.12-1.14-.36s-.4-.57-.4-.99c0-.37.11-.66.33-.88.22-.22.49-.34.82-.34.52,0,.86.34,1.02,1.02.05.22.1.36.16.42.05.06.13.08.25.08.13,0,.26-.06.39-.19.18-.19.32-.52.42-.97.13-.63.2-1.25.2-1.86v-8.83c0-.41-.13-.72-.38-.94-.25-.22-.63-.32-1.13-.32h-.95v-.78l4.29-.16ZM568.02,145.32c.37,0,.67.12.91.35.24.23.36.53.36.89s-.12.67-.36.91c-.24.24-.54.36-.89.36s-.64-.12-.9-.38-.38-.54-.38-.88.13-.63.38-.88c.25-.25.55-.37.88-.37Z"/>
        </g>
        <circle class="cls-3" cx="275.32" cy="155.13" r="3.46"/>
        <circle class="cls-3" cx="459.23" cy="155.13" r="3.46"/>
      </g>
    </g>
  </g>
</svg>