<?xml version="1.0" encoding="UTF-8"?>
<svg id="Layer_2" data-name="Layer 2" xmlns="http://www.w3.org/2000/svg" viewBox="0 0 609.79 209.87">
  <defs>
    <style>
      .cls-1 {
        fill: #2f2f2f;
      }

      .cls-1, .cls-2, .cls-3 {
        stroke-width: 0px;
      }

      .cls-2 {
        fill: #7f8267;
      }

      .cls-3 {
        fill: #c8b89e;
      }
    </style>
  </defs>
  <g id="Layer_1-2" data-name="Layer 1">
    <g>
      <g>
        <path class="cls-1" d="M220.89,112.23l-18.43,45.5-.89,2.29h-5.48l-13.9-32.23-13.33,29.94-.89,2.29h-5.48l-18.59-47.26-.21-.53h6.28l17.73,45.24,13.81-31.21-5.98-14.03h6.26l19.59,45.24,18.01-44.95.11-.28h1.38Z"/>
        <path class="cls-1" d="M261.95,111.95l-15.33,24.57c-.23.34-.35.73-.35,1.13l-.03,22.35h-5.73l.11-18.65c0-.4-.12-.79-.33-1.1l-16.63-26.84-.9-1.44h6.89s14.73,24.08,14.73,24.08l13.78-22.07,1.23-2h2.56Z"/>
        <path class="cls-1" d="M305.09,112.03l-.4,1.25h-17.67v46.74h-5.73v-46.74h-17.67l-.42-1.25h41.89Z"/>
        <path class="cls-1" d="M340.1,156.56l.91.94c-3.81,2.13-8.09,3.25-12.44,3.25-14.16,0-26.12-11.35-26.12-24.79s11.96-24.79,26.12-24.79c5.01,0,9.83,1.45,14,4.19l-1.77,1.83c-4.96-3.7-10.84-5.24-16.65-4.35-5.15.79-9.43,3.43-12.38,7.62-3.54,5.03-4.8,11.92-3.46,18.9,2.55,13.24,12.93,21.53,24.67,19.72,2.51-.39,4.9-1.23,7.12-2.51Z"/>
        <path class="cls-1" d="M390.97,112.08v47.94h-5.8v-20.56h-29.82v20.56h-5.85v-47.93s5.83,0,5.83,0l.02,26.12h29.82v-26.12s5.68,0,5.68,0h0s.08,0,.13,0Z"/>
        <path class="cls-1" d="M442.84,112.17v47.85h-3.29l-36.37-39.08-.02,39.08h-1.26v-47.85h1.95l37.74,40.39v-40.39h1.24Z"/>
        <path class="cls-1" d="M459.51,112.18v47.84h-5.76v-47.84s5.76,0,5.76,0Z"/>
        <path class="cls-1" d="M476.01,158.58h25.95l-1.08,1.44h-30.49v-47.83s31.8,0,31.8,0l-1.25,1.27h-24.94v18.42h25.51l-1,1.25h-24.51v25.46Z"/>
        <path class="cls-1" d="M550.43,112.17v47.85h-3.29l-36.37-39.08-.02,39.08h-1.26v-47.85h1.95l37.74,40.39v-40.39h1.24Z"/>
        <path class="cls-1" d="M567.11,112.18v47.84h-5.76v-47.84s5.76,0,5.76,0Z"/>
        <path class="cls-1" d="M583.61,158.58h25.95l-1.08,1.44h-30.49v-47.83s31.8,0,31.8,0l-1.25,1.27h-24.94v18.42h25.51l-1,1.25h-24.51v25.46Z"/>
      </g>
      <g>
        <g>
          <path class="cls-2" d="M156.92,170.67c1.44,0,2.79.38,4.06,1.14,1.26.76,2.25,1.82,2.96,3.18.71,1.36,1.07,2.89,1.07,4.6s-.36,3.25-1.08,4.62c-.72,1.37-1.7,2.44-2.96,3.21-1.25.77-2.58,1.15-3.99,1.15s-2.66-.38-3.87-1.13c-1.2-.75-2.17-1.83-2.9-3.23-.73-1.4-1.09-2.95-1.09-4.66s.35-3.2,1.06-4.55c.71-1.35,1.67-2.42,2.9-3.18,1.23-.77,2.5-1.15,3.83-1.15ZM157.1,171.57c-1.5,0-2.72.62-3.66,1.88s-1.4,3.29-1.4,6.11c0,3.06.48,5.18,1.43,6.35.96,1.17,2.14,1.76,3.55,1.76.99,0,1.86-.27,2.6-.8.75-.53,1.34-1.38,1.79-2.54.44-1.16.67-2.68.67-4.56,0-2.05-.21-3.66-.62-4.81-.42-1.15-1.01-2.01-1.78-2.56s-1.63-.83-2.58-.83Z"/>
          <path class="cls-2" d="M176.99,171.03l4.24-.2v14.84c0,.58.11.99.33,1.24s.55.37.99.37h.75v.87h-3.7l-.28-2.21c-.44.79-.96,1.38-1.54,1.78-.59.4-1.25.6-1.99.6-1.23,0-2.29-.52-3.15-1.55s-1.3-2.4-1.3-4.1c0-1.84.56-3.3,1.67-4.4.87-.86,1.88-1.29,3.01-1.29.69,0,1.32.17,1.87.52.55.35,1.03.87,1.44,1.57v-6.12c0-.32-.13-.58-.38-.77-.25-.19-.64-.28-1.17-.28h-.78v-.87ZM176.32,177.94c-.83,0-1.49.34-1.98,1.03-.49.69-.74,1.84-.74,3.47,0,1.77.25,3.01.75,3.73.5.72,1.15,1.08,1.93,1.08.84,0,1.56-.4,2.16-1.21.6-.81.9-1.98.9-3.54,0-1.47-.32-2.62-.96-3.46-.56-.74-1.24-1.11-2.06-1.11Z"/>
          <path class="cls-2" d="M191.69,177.11c.17.81.27,1.59.3,2.34.53-.85,1.09-1.45,1.68-1.8.58-.36,1.22-.53,1.92-.53.74,0,1.45.23,2.12.68.67.46,1.22,1.12,1.64,2,.42.88.63,1.87.63,2.97,0,1.77-.52,3.21-1.55,4.32-.85.93-1.88,1.39-3.07,1.39-.68,0-1.29-.17-1.83-.52-.55-.35-1.03-.86-1.45-1.55v4.39c0,.34.08.58.24.72.21.18.5.28.87.28h.8v.82h-5.8v-.82h.8c.37,0,.65-.07.83-.22.18-.15.28-.34.28-.58v-11.41c0-.53-.13-.91-.38-1.13s-.76-.34-1.53-.36v-.78l3.51-.2ZM195.05,178.16c-.84,0-1.55.41-2.13,1.21-.58.81-.87,1.98-.87,3.52s.28,2.7.84,3.44c.56.74,1.28,1.11,2.15,1.11.82,0,1.44-.32,1.88-.95.56-.83.84-2.05.84-3.66s-.25-2.88-.76-3.6c-.51-.72-1.16-1.08-1.95-1.08Z"/>
          <path class="cls-2" d="M210.77,176.98c1.46,0,2.68.53,3.67,1.58.99,1.05,1.49,2.44,1.49,4.16,0,1.19-.22,2.2-.67,3.04s-1.08,1.5-1.9,1.98c-.82.49-1.71.73-2.66.73-1.4,0-2.59-.53-3.57-1.6-.98-1.06-1.46-2.45-1.46-4.14s.49-3.09,1.47-4.16c.98-1.06,2.19-1.6,3.62-1.6ZM210.77,177.8c-.86,0-1.57.39-2.13,1.17-.55.78-.83,2.02-.83,3.71s.28,2.98.83,3.77c.55.79,1.26,1.19,2.13,1.19s1.63-.4,2.19-1.19c.56-.79.84-2.09.84-3.9,0-1.67-.28-2.89-.83-3.63-.55-.75-1.29-1.12-2.21-1.12Z"/>
          <path class="cls-2" d="M229.58,184.93l.75.22c-.6,2.21-1.93,3.32-3.98,3.32-1.5,0-2.74-.5-3.69-1.49-.96-1-1.43-2.32-1.43-3.97,0-1.91.52-3.4,1.57-4.45,1.05-1.05,2.28-1.58,3.7-1.58,1.06,0,1.94.29,2.64.88.69.59,1.04,1.24,1.04,1.96,0,.43-.13.79-.39,1.07-.26.28-.57.42-.92.42s-.64-.12-.88-.36c-.24-.24-.36-.53-.36-.87s.13-.66.39-.97c.12-.15.19-.26.19-.35,0-.22-.15-.44-.45-.65-.3-.21-.71-.32-1.23-.32-.94,0-1.65.34-2.14,1.03-.69.99-1.04,2.3-1.04,3.93s.31,2.72.93,3.52c.62.8,1.4,1.2,2.36,1.2,1.32,0,2.3-.85,2.94-2.55Z"/>
          <path class="cls-2" d="M236.58,177.31h8.6v.69l-6.82,9.28h3.32c.76,0,1.37-.24,1.83-.72.46-.48.81-1.37,1.05-2.67h.78l-.25,4.26h-9.12v-.8l6.81-9.22h-2.88c-.6,0-1.05.08-1.35.25-.3.17-.55.44-.77.82-.22.38-.42,1.04-.6,1.97h-.86l.27-3.87Z"/>
          <path class="cls-2" d="M250.8,177.31l3.6-.22c.15.68.25,1.47.32,2.38.49-.79,1.06-1.38,1.72-1.77.66-.39,1.41-.59,2.24-.59.72,0,1.32.14,1.81.42.49.28.88.73,1.17,1.34s.44,1.29.44,2.05v5.28c0,.39.09.67.27.84.18.17.47.25.89.25h.76v.87h-5.72v-.87h.54c.51,0,.86-.08,1.06-.24.2-.16.3-.4.3-.73v-4.64c0-1.01-.16-1.76-.46-2.25-.43-.69-1.09-1.04-1.97-1.04s-1.6.35-2.18,1.05c-.58.7-.87,1.62-.87,2.74v4.02c0,.39.09.67.27.84.18.17.48.25.9.25h.75v.87h-5.74v-.87h.75c.38,0,.67-.08.86-.23.2-.15.29-.35.29-.58v-7c0-.46-.12-.81-.38-1.05s-.61-.36-1.08-.36h-.56v-.75Z"/>
          <path class="cls-2" d="M268.86,177.31l4.32-.13v9.33c0,.25.06.44.19.54.18.15.4.23.67.23h1.23v.87h-6.17v-.87h1.15c.34,0,.59-.08.75-.25.16-.17.24-.41.24-.72v-6.83c0-.43-.12-.76-.37-.98-.25-.22-.61-.33-1.1-.33h-.89v-.87ZM271.87,170.84c.35,0,.65.13.91.39.26.26.39.57.39.93s-.13.65-.38.9c-.25.25-.56.38-.91.38s-.66-.13-.92-.39c-.26-.26-.39-.56-.39-.91s.13-.65.39-.92.56-.39.9-.39Z"/>
          <path class="cls-2" d="M284.39,177.14v10.37c0,1.51-.41,2.77-1.24,3.76-.83,1-1.74,1.49-2.75,1.49-.51,0-.9-.12-1.18-.38-.28-.25-.42-.59-.42-1.02,0-.38.11-.68.33-.91.22-.23.51-.35.84-.35.54,0,.89.35,1.05,1.05.05.23.11.38.16.43.05.06.14.09.25.09.14,0,.27-.07.4-.2.19-.2.33-.54.44-1.01.14-.65.21-1.29.21-1.92v-9.13c0-.42-.13-.75-.39-.97-.26-.22-.65-.34-1.17-.34h-.98v-.81l4.43-.16ZM283.23,170.81c.38,0,.69.12.94.36s.37.55.37.92-.12.69-.37.94-.55.37-.93.37-.66-.13-.93-.39c-.26-.26-.39-.56-.39-.91s.13-.65.39-.91c.26-.26.57-.39.92-.39Z"/>
        </g>
        <g>
          <path class="cls-2" d="M323.26,171.03h11.65v.87l-9.78,15.38h3.71c1.07,0,1.94-.17,2.62-.52.68-.35,1.23-.87,1.65-1.56.42-.69.8-1.85,1.15-3.48h.81l-.31,6.42h-12.38v-.78l9.88-15.47h-3.53c-.97,0-1.71.11-2.25.33-.73.3-1.32.84-1.77,1.61-.46.78-.78,1.81-.96,3.11h-.81l.32-5.92Z"/>
          <path class="cls-2" d="M340.56,177.31l3.6-.22c.15.68.25,1.47.32,2.38.49-.79,1.06-1.38,1.72-1.77.66-.39,1.41-.59,2.24-.59.72,0,1.32.14,1.81.42.49.28.88.73,1.17,1.34s.44,1.29.44,2.05v5.28c0,.39.09.67.27.84.18.17.47.25.89.25h.76v.87h-5.72v-.87h.54c.51,0,.86-.08,1.06-.24.2-.16.3-.4.3-.73v-4.64c0-1.01-.16-1.76-.46-2.25-.43-.69-1.09-1.04-1.97-1.04s-1.6.35-2.18,1.05c-.58.7-.87,1.62-.87,2.74v4.02c0,.39.09.67.27.84.18.17.48.25.9.25h.75v.87h-5.74v-.87h.75c.38,0,.67-.08.86-.23.2-.15.29-.35.29-.58v-7c0-.46-.12-.81-.38-1.05s-.61-.36-1.08-.36h-.56v-.75Z"/>
          <path class="cls-2" d="M370.29,186.96l.42.65c-.56.58-1.19.87-1.88.87-.52,0-.97-.14-1.33-.43-.36-.29-.67-.79-.94-1.5-.73.77-1.38,1.29-1.93,1.54-.56.26-1.22.39-2,.39-1.11,0-1.96-.24-2.53-.72-.58-.48-.87-1.09-.87-1.84,0-1.13.66-2.06,1.98-2.81,1.32-.74,3.08-1.24,5.28-1.49v-1.64c0-.59-.24-1.09-.71-1.5-.47-.42-1.07-.62-1.79-.62-.67,0-1.25.14-1.74.42-.35.21-.52.41-.52.61,0,.12.09.3.28.54.22.31.34.58.34.82,0,.35-.11.63-.34.85s-.52.33-.88.33c-.39,0-.71-.13-.97-.39-.26-.26-.39-.6-.39-1.01,0-.76.43-1.46,1.29-2.09s1.99-.95,3.38-.95c1.29,0,2.27.28,2.95.83.68.56,1.02,1.25,1.02,2.05v5.92c0,.53.08.91.25,1.16.17.25.39.38.66.38.3,0,.62-.12.95-.37ZM366.5,182.39c-1.96.27-3.35.71-4.17,1.32-.61.46-.91,1.12-.91,1.97,0,.59.16,1.06.47,1.39.32.34.73.5,1.24.5.91,0,1.7-.34,2.37-1.04s1-1.56,1-2.6v-1.55Z"/>
          <path class="cls-2" d="M379.87,177.14v10.37c0,1.51-.41,2.77-1.24,3.76-.83,1-1.74,1.49-2.75,1.49-.51,0-.9-.12-1.18-.38-.28-.25-.42-.59-.42-1.02,0-.38.11-.68.33-.91.22-.23.51-.35.84-.35.54,0,.89.35,1.05,1.05.05.23.11.38.16.43.05.06.14.09.25.09.14,0,.27-.07.4-.2.19-.2.33-.54.44-1.01.14-.65.21-1.29.21-1.92v-9.13c0-.42-.13-.75-.39-.97-.26-.22-.65-.34-1.17-.34h-.98v-.81l4.43-.16ZM378.71,170.81c.38,0,.69.12.94.36s.37.55.37.92-.12.69-.37.94-.55.37-.93.37-.66-.13-.93-.39c-.26-.26-.39-.56-.39-.91s.13-.65.39-.91c.26-.26.57-.39.92-.39Z"/>
          <path class="cls-2" d="M392.76,171.03l4.24-.2v14.84c0,.58.11.99.33,1.24s.55.37.99.37h.75v.87h-3.7l-.28-2.21c-.44.79-.96,1.38-1.54,1.78-.59.4-1.25.6-1.99.6-1.23,0-2.29-.52-3.15-1.55s-1.3-2.4-1.3-4.1c0-1.84.56-3.3,1.67-4.4.87-.86,1.88-1.29,3.01-1.29.69,0,1.32.17,1.87.52.55.35,1.03.87,1.44,1.57v-6.12c0-.32-.13-.58-.38-.77-.25-.19-.64-.28-1.17-.28h-.78v-.87ZM392.09,177.94c-.83,0-1.49.34-1.98,1.03-.49.69-.74,1.84-.74,3.47,0,1.77.25,3.01.75,3.73.5.72,1.15,1.08,1.93,1.08.84,0,1.56-.4,2.16-1.21.6-.81.9-1.98.9-3.54,0-1.47-.32-2.62-.96-3.46-.56-.74-1.24-1.11-2.06-1.11Z"/>
          <path class="cls-2" d="M404.99,177.31h8.6v.69l-6.82,9.28h3.32c.76,0,1.37-.24,1.83-.72.46-.48.81-1.37,1.05-2.67h.78l-.25,4.26h-9.12v-.8l6.81-9.22h-2.88c-.6,0-1.05.08-1.35.25-.3.17-.55.44-.77.82-.22.38-.42,1.04-.6,1.97h-.86l.27-3.87ZM407.61,175.49l-.29-.29,1.98-2.83c.54-.79.92-1.27,1.14-1.44.22-.17.44-.25.67-.25.25,0,.48.09.67.28.19.19.29.4.29.64,0,.39-.27.78-.82,1.19l-3.63,2.7Z"/>
          <path class="cls-2" d="M430.89,184.07c.48,1.33,1.03,2.26,1.65,2.77s1.39.77,2.3.77c.84,0,1.49-.18,1.94-.55s.68-.83.68-1.39c0-.32-.08-.61-.25-.85s-.4-.42-.69-.54c-.29-.12-1.06-.29-2.29-.53-1.17-.23-1.99-.47-2.46-.73-.46-.25-.82-.61-1.08-1.05s-.39-.93-.39-1.46c0-.79.27-1.52.8-2.16.69-.83,1.65-1.24,2.89-1.24.94,0,1.82.3,2.62.89l.76-.81h.48l.3,3.87h-.78c-.34-1.1-.8-1.88-1.38-2.37-.58-.48-1.29-.72-2.14-.72-.73,0-1.31.18-1.73.54-.42.36-.63.8-.63,1.31,0,.46.19.83.58,1.13.38.31,1.12.55,2.23.73,1.28.22,2.12.4,2.5.55.63.23,1.12.59,1.47,1.07.35.48.52,1.07.52,1.76,0,.96-.38,1.77-1.13,2.43s-1.71,1-2.87,1c-1.07,0-2.07-.35-2.99-1.06l-.85.97h-.61l-.23-4.32h.78Z"/>
          <path class="cls-2" d="M444.14,177.31l4.32-.13v9.33c0,.25.06.44.19.54.18.15.4.23.67.23h1.23v.87h-6.17v-.87h1.15c.34,0,.59-.08.75-.25.16-.17.24-.41.24-.72v-6.83c0-.43-.12-.76-.37-.98-.25-.22-.61-.33-1.1-.33h-.89v-.87ZM447.15,170.84c.35,0,.65.13.91.39.26.26.39.57.39.93s-.13.65-.38.9c-.25.25-.56.38-.91.38s-.66-.13-.92-.39c-.26-.26-.39-.56-.39-.91s.13-.65.39-.92.56-.39.9-.39Z"/>
          <path class="cls-2" d="M455.18,171.9v-.87l4.29-.2v6.59l2.05-1.83v1.08l-2.05,1.84v8.04c0,.22.07.38.2.5.19.15.43.23.71.23h1.15v.87h-6.15v-.87h1.09c.35,0,.62-.08.79-.25.17-.17.26-.41.26-.72v-6.31l-2.21,1.84v-1.07l2.21-1.84v-5.82c0-.39-.1-.67-.31-.85-.29-.25-.64-.37-1.05-.37h-.97Z"/>
          <path class="cls-2" d="M477.03,182.8h-7.77c.04,1.65.35,2.82.93,3.5.66.76,1.51,1.15,2.53,1.15,1.51,0,2.73-.86,3.65-2.58l.75.32c-1.13,2.19-2.75,3.29-4.88,3.29-1.45,0-2.67-.52-3.66-1.57-.99-1.05-1.49-2.39-1.49-4.03,0-1.76.49-3.18,1.46-4.26s2.18-1.63,3.61-1.63c1.05,0,1.96.27,2.72.81.76.54,1.34,1.32,1.72,2.33.27.71.41,1.6.43,2.68ZM469.27,181.98h4.7c.28,0,.49-.09.65-.28.15-.19.23-.51.23-.97,0-.85-.26-1.57-.79-2.16-.53-.59-1.15-.89-1.87-.89-.8,0-1.48.36-2.04,1.08-.56.72-.85,1.79-.87,3.23ZM472.16,188.03h.61c-.21.42-.31.82-.31,1.19,0,.69.24,1.26.71,1.7.47.44,1.07.65,1.8.65.42,0,.89-.09,1.4-.27l.24.38c-.59.36-1.08.6-1.47.72s-.81.19-1.25.19c-.83,0-1.48-.21-1.96-.64-.48-.42-.72-.96-.72-1.62,0-.92.31-1.69.94-2.32Z"/>
        </g>
        <g>
          <path class="cls-2" d="M509.71,171.03h8.84c1.31,0,2.43.23,3.35.69,1.14.59,2.11,1.56,2.91,2.93s1.2,2.98,1.2,4.85c0,1.54-.24,2.93-.72,4.17-.36.95-.92,1.78-1.67,2.49s-1.67,1.24-2.75,1.6c-.81.26-1.89.39-3.24.39h-7.91v-.87h1.62c.41,0,.69-.07.85-.2.16-.13.24-.34.24-.61v-13.78c0-.24-.08-.43-.25-.57s-.41-.21-.71-.21h-1.75v-.87ZM515.91,171.9c-.35,0-.6.07-.77.22s-.25.37-.25.66v13.66c0,.28.1.49.29.63.19.14.52.21.98.21h1.46c1.3,0,2.45-.33,3.43-1.01.64-.45,1.13-1.08,1.46-1.89.46-1.1.68-2.61.68-4.54,0-2.85-.5-4.95-1.49-6.27-.85-1.12-2.13-1.68-3.84-1.68h-1.94Z"/>
          <path class="cls-2" d="M532.87,177.31h8.6v.69l-6.82,9.28h3.32c.77,0,1.38-.24,1.83-.72s.81-1.37,1.05-2.67h.78l-.25,4.26h-9.12v-.8l6.8-9.22h-2.88c-.6,0-1.05.08-1.35.25-.3.17-.55.44-.77.82-.21.38-.42,1.04-.6,1.97h-.86l.27-3.87Z"/>
          <path class="cls-2" d="M546.88,177.31l4.32-.13v9.33c0,.25.06.44.19.54.18.15.4.23.67.23h1.23v.87h-6.17v-.87h1.15c.34,0,.59-.08.75-.25.16-.17.24-.41.24-.72v-6.83c0-.43-.12-.76-.37-.98-.25-.22-.61-.33-1.1-.33h-.89v-.87ZM549.89,170.84c.35,0,.65.13.91.39.26.26.39.57.39.93s-.13.65-.38.9c-.25.25-.56.38-.91.38s-.66-.13-.92-.39-.39-.56-.39-.91.13-.65.39-.92c.26-.26.56-.39.9-.39Z"/>
          <path class="cls-2" d="M569.81,186.96l.42.65c-.56.58-1.19.87-1.88.87-.52,0-.97-.14-1.32-.43-.36-.29-.67-.79-.94-1.5-.73.77-1.38,1.29-1.93,1.54-.55.26-1.22.39-2,.39-1.11,0-1.96-.24-2.53-.72-.58-.48-.87-1.09-.87-1.84,0-1.13.66-2.06,1.98-2.81,1.32-.74,3.09-1.24,5.28-1.49v-1.64c0-.59-.23-1.09-.71-1.5-.47-.42-1.07-.62-1.79-.62-.67,0-1.25.14-1.73.42-.35.21-.52.41-.52.61,0,.12.09.3.28.54.22.31.34.58.34.82,0,.35-.11.63-.34.85-.22.22-.52.33-.88.33-.39,0-.71-.13-.97-.39s-.39-.6-.39-1.01c0-.76.43-1.46,1.29-2.09.86-.63,1.99-.95,3.38-.95,1.29,0,2.27.28,2.95.83.68.56,1.02,1.25,1.02,2.05v5.92c0,.53.08.91.25,1.16.17.25.39.38.66.38.3,0,.62-.12.95-.37ZM566.01,182.39c-1.96.27-3.35.71-4.17,1.32-.61.46-.91,1.12-.91,1.97,0,.59.16,1.06.47,1.39s.73.5,1.24.5c.91,0,1.7-.34,2.37-1.04.67-.69,1-1.56,1-2.6v-1.55Z"/>
          <path class="cls-2" d="M574.9,171.9v-.87l4.29-.2v6.59l2.05-1.83v1.08l-2.05,1.84v8.04c0,.22.06.38.2.5.19.15.43.23.71.23h1.15v.87h-6.15v-.87h1.09c.36,0,.62-.08.79-.25.17-.17.26-.41.26-.72v-6.31l-2.21,1.84v-1.07l2.21-1.84v-5.82c0-.39-.1-.67-.31-.85-.29-.25-.63-.37-1.05-.37h-.97Z"/>
          <path class="cls-2" d="M598.04,186.96l.42.65c-.56.58-1.19.87-1.88.87-.52,0-.97-.14-1.32-.43-.36-.29-.67-.79-.94-1.5-.73.77-1.38,1.29-1.93,1.54-.55.26-1.22.39-2,.39-1.11,0-1.96-.24-2.53-.72-.58-.48-.87-1.09-.87-1.84,0-1.13.66-2.06,1.98-2.81,1.32-.74,3.09-1.24,5.28-1.49v-1.64c0-.59-.23-1.09-.71-1.5-.47-.42-1.07-.62-1.79-.62-.67,0-1.25.14-1.73.42-.35.21-.52.41-.52.61,0,.12.09.3.28.54.22.31.34.58.34.82,0,.35-.11.63-.34.85-.22.22-.52.33-.88.33-.39,0-.71-.13-.97-.39s-.39-.6-.39-1.01c0-.76.43-1.46,1.29-2.09.86-.63,1.99-.95,3.38-.95,1.29,0,2.27.28,2.95.83.68.56,1.02,1.25,1.02,2.05v5.92c0,.53.08.91.25,1.16.17.25.39.38.66.38.3,0,.62-.12.95-.37ZM594.24,182.39c-1.96.27-3.35.71-4.17,1.32-.61.46-.91,1.12-.91,1.97,0,.59.16,1.06.47,1.39s.73.5,1.24.5c.91,0,1.7-.34,2.37-1.04.67-.69,1-1.56,1-2.6v-1.55Z"/>
          <path class="cls-2" d="M607.62,177.14v10.37c0,1.51-.41,2.77-1.24,3.76-.83,1-1.74,1.49-2.76,1.49-.51,0-.9-.12-1.18-.38s-.42-.59-.42-1.02c0-.38.11-.68.33-.91.22-.23.51-.35.85-.35.54,0,.89.35,1.05,1.05.05.23.11.38.16.43.05.06.14.09.26.09.14,0,.27-.07.4-.2.19-.2.33-.54.44-1.01.14-.65.21-1.29.21-1.92v-9.13c0-.42-.13-.75-.39-.97s-.65-.34-1.17-.34h-.98v-.81l4.43-.16ZM606.46,170.81c.38,0,.69.12.94.36.25.24.37.55.37.92s-.12.69-.37.94c-.25.25-.55.37-.93.37s-.66-.13-.93-.39c-.26-.26-.39-.56-.39-.91s.13-.65.39-.91c.26-.26.57-.39.91-.39Z"/>
        </g>
        <circle class="cls-3" cx="303.7" cy="180.97" r="3.58"/>
        <circle class="cls-3" cx="493.92" cy="180.97" r="3.58"/>
      </g>
      <g>
        <g>
          <path class="cls-2" d="M29.36,141.69c-1.16,0-1.63-.72-1.81-1.19-1-2.6-.42-4.9.14-7.12.32-1.27.66-2.59.69-3.96.03-1.57,1.31-3.63,2.79-6.01,2.02-3.24,4.26-6.84,3.58-9.57-.73,2.39-2.53,6.43-6.47,7.16l-.78.14v-.79c0-.1.02-1.27.79-3.25-1.88,2.93-3.6,5.48-4.5,6.7-1.88,2.53-8.5,10.68-14.67,8.97-4.13-1.13-4.64-2.34-4.92-3.93-.06-.38-.12-.7-.29-1.03-.34-.64-.52-1.22-.66-1.64-.08-.25-.18-.55-.24-.63-.87.29-1.26-.15-1.39-.33-.45-.68-.08-1.8,1.12-3.42.46-.62,1.82-1.73,3.54-2.99-.84.47-1.58.89-2.15,1.23-.45.27-1.83,1.1-2.87.41-1.3-.87-1.01-3.35-.47-6.75.25-1.55-.11-2.03-.4-2.42-.68-.94-.53-1.58.73-2.98.53-.59,1.02-1.19,1.5-1.78,1.71-2.09,3.33-4.06,6.26-5.2,1.34-.52,2.53-1.29,3.56-2.04-1.48-.54-2.97-1.32-4.4-2.32-2.76-1.93-3.75-6.42-2.09-9.32l1.05-6.73.7.18c.15.04,2.16.55,4.26,1.39-1.23-.72-2.39-1.34-3.22-1.76-1.16-.58-2.43-2.12-1.95-6.19,0-.15-.04-.38-.1-.71-.92-4.98-1.05-7.24-.47-8.07.15-.21.19-.66.24-1.13.13-1.32.33-3.32,3.11-4.43,3.69-1.46,9.68,3.95,10.67,4.87,1.26.62,12.48,6.65,14.68,24.31.05.31,1.05,6.6.73,12.22.88-.95,2.17-1.53,3.23-1.58.87-.05,1.48.25,1.79.81.16-.19.33-.39.51-.61.74-.88,3.23-2.8,5.87-4.83,2.26-1.74,4.6-3.54,5.53-4.47,1.17-1.16,10.8-9.8,14.53-9.8.34,0,.67,0,.99-.01,1.6-.04,3-.07,3.89.89.69.74.92,1.94.75,3.77-.29,3-1.94,4.5-3.55,5.95-1.01.91-2.05,1.86-2.82,3.22-1.01,1.76-3.07,3.43-5.07,5.05-2.23,1.81-4.55,3.68-4.83,5.31-.44,2.49-2.81,4.76-4.84,5.82-1.11.58-2.08.84-3.09.81.55,2,1.11,6.2-2.35,9.86-3.55,3.76-3.42,6.34-3.33,8.05.02.36.03.68.02.97-.1,1.86-9.13,10.25-13,10.87-.19.03-.36.04-.52.04ZM34.14,110.42l.92,1.14c2.85,3.53-.26,8.53-2.76,12.55-1.32,2.12-2.57,4.13-2.6,5.34-.03,1.52-.39,2.91-.73,4.25-.53,2.12-1.04,4.12-.19,6.33.07.19.19.39.7.35,3.24-.21,11.74-8.2,12.1-9.7,0-.21,0-.49-.02-.8-.09-1.81-.25-4.85,3.69-9.01,4.08-4.32,1.82-9.36,1.72-9.58l-.76-1.63,1.63.76c.76.36,1.93.17,3.2-.49,2.11-1.1,3.85-3.15,4.15-4.88.37-2.11,2.77-4.05,5.3-6.1,1.9-1.54,3.87-3.13,4.75-4.68.88-1.54,2-2.55,3.09-3.54,1.54-1.4,2.88-2.61,3.12-5.11.13-1.4,0-2.32-.4-2.75-.49-.53-1.55-.5-2.91-.48-.33,0-.67.01-1.02.01-2.69,0-11.25,7.07-13.6,9.42-.98.98-3.25,2.73-5.65,4.58-2.47,1.9-5.02,3.87-5.66,4.63-.67.81-1.23,1.43-1.61,1.85-.52,1.2-1.72,2.7-3.59,4.49-6.08,5.83-7.65,10.25-8.04,12.07,3.88-1.53,4.92-7.52,4.93-7.59l.24-1.44ZM3.06,124.3c.98,0,1.25.84,1.45,1.48.12.4.28.89.57,1.43.27.51.35.99.42,1.42.18,1.01.33,1.88,3.97,2.88,5.38,1.48,11.52-6.13,13.28-8.49,2.32-3.12,8.71-13.07,11.17-17.99,1.24-5.84-.27-15.39-.29-15.49-2.2-17.58-13.92-23.3-14.04-23.35l-.17-.12c-1.74-1.64-6.79-5.69-9.35-4.67-2.04.82-2.17,2.1-2.29,3.34-.07.65-.13,1.26-.47,1.75-.18.29-.32,1.61.68,7.09.08.47.13.78.13.83,0,.04,0,.13-.02.27-.4,3.31.45,4.47,1.23,4.86.08.04,8.31,4.17,10.13,7.01,1.31,2.05,2.46,2.97,2.47,2.98l.98.78-1.19.37c-1.97.58-5.59-3.79-6.29-4.67-1.17-1.47-5.2-2.85-7.34-3.46l-.94,5.66c-1.25,2.06-.73,6.01,1.65,7.68,1.58,1.11,3.28,1.94,4.94,2.43,1.13-.86,2.03-1.52,2.87-1.66,1.07-.17,2.1.44,2.6,1.09.36.48.45,1.02.23,1.47-.28.58-.98.89-2.08.92-1.07.03-2.2-.1-3.34-.38-1.27.96-2.81,2.06-4.65,2.78-2.6,1.02-4.11,2.86-5.71,4.81-.5.61-1,1.22-1.55,1.83-.74.83-.79,1.07-.79,1.11,0,.03.09.14.15.22.36.49.96,1.32.63,3.4-.26,1.62-.79,4.98-.09,5.46.17.11.64.04,1.46-.44,3.47-2.08,13.3-7.22,13.4-7.27l.66,1.13c-3.42,2.19-12.56,8.22-13.71,9.79-.64.87-.91,1.43-1,1.74.09-.01.18-.02.26-.02ZM35.03,105.75c-.64,1.28-1.51,2.83-2.49,4.49.98-1.19,2.16-2.47,3.56-3.81.79-.76,1.41-1.42,1.89-1.98l-2.96,1.3ZM39.04,101.3s-.06,0-.09,0c-1.08.05-2.54.94-2.91,2.13-.05.16-.11.33-.19.52l3.29-1.44c.07-.07.18-.19.33-.35.17-.47.09-.67.08-.69-.05-.13-.29-.17-.51-.17ZM15.43,98.69c.65.1,1.27.14,1.89.13.77-.02.95-.2.95-.2,0,0-.1-.14-.36-.34-.34-.26-.77-.4-1.08-.34-.35.06-.84.36-1.4.75ZM17.01,85.85c.5.59.99,1.11,1.46,1.56-.04-.05-.07-.11-.11-.16-.27-.42-.74-.89-1.35-1.4Z"/>
          <path class="cls-2" d="M39.95,99.38l-1.22-.49s1.27-3.18,1.44-6.68c.03-.7,0-1.54-.02-2.48-.12-4.18-.29-9.9,3.89-12.71l.73,1.09c-3.57,2.4-3.42,7.71-3.31,11.58.03.97.05,1.85.02,2.58-.18,3.74-1.48,6.98-1.53,7.12Z"/>
          <path class="cls-2" d="M41.04,99.47l-1.12-.68c.1-.16,2.35-3.86,4.07-5.31.38-.32.99-.65,1.77-1.07,3.04-1.63,8.11-4.36,7.27-10.31l1.3-.19c.98,6.85-4.82,9.97-7.94,11.65-.68.37-1.27.68-1.54.91-1.56,1.31-3.77,4.96-3.79,4.99Z"/>
          <path class="cls-2" d="M45.13,63.76c-.41,0-.78-.17-1.05-.49-.69-.84-.59-2.83,1.97-5.69,1-1.12,1.8-2.42,2.42-3.67-2.72,3.02-6.43,5.05-10.96,5.97-7.73,1.55-15.69-.56-17.13-1.9-1.44-1.33-.95-2.56-.6-3.45.32-.8.46-1.25,0-1.89-1.39-1.88-1.38-3.82.03-5.46.57-.67.71-1.57.92-2.94.06-.41.13-.85.22-1.33.36-2.03,1.49-2.86,2.31-3.47.14-.1.27-.2.39-.3.58-.48,1.11-2.31,1.11-3.84,0-1.88,1.45-2.6,2.61-3.18l.22-.11c.17-.11.54-.78.81-1.27.27-.5.59-1.06.95-1.6-.07-.2-.14-.4-.2-.6l-.16-.46c-.61-1.8.01-2.57.68-3.39.65-.81,1.46-1.82,1.54-4.56.14-5.11,1.19-13.41,2.82-15.73.37-.52.83-.82,1.37-.89,1.17-.16,2.35.89,3.69,2.08.7.61,1.41,1.24,2.13,1.71.69.44,1.43.98,2.2,1.62-.1-3.37-.04-6.02,1.43-7.57C45.66.48,46.88.03,48.55,0c.03,0,.06,0,.1,0,7.85,0,10.77,17.97,11.81,28.71.52,5.35-1.54,12.92-2.63,16.43.77-.43,1.67-.74,2.4-.46.44.16.99.59,1.13,1.71.13,1.04-.1,1.88-.69,2.49-.62.64-1.49.85-2.13.92.04.85-.18,1.68-.66,2.37-.51.74-1.53,1.67-3.54,1.92-2.47.31-2.89,1.45-2.91,1.5-.83,5.17-4.2,7.2-5.31,7.86-.33.2-.68.3-1,.3ZM52.06,46.78l-.45,2.22c-.05.23-1.2,5.68-4.58,9.45-2.08,2.31-2.14,3.73-1.93,3.98.02.03.17.01.36-.1,1.7-1.02,4.04-2.87,4.71-7.04.08-.28.68-2.08,4.02-2.5,1.21-.15,2.11-.62,2.62-1.36.41-.6.54-1.35.35-2.11l-.22-.89.92.08c.33.03,1.37,0,1.88-.55.3-.32.41-.78.33-1.42-.03-.21-.1-.57-.29-.65-.49-.17-1.81.59-2.75,1.43l-1.91,1.71.85-2.42c.04-.11,3.84-11.04,3.19-17.79-.63-6.47-3.24-27.53-10.51-27.53h-.07c-1.3.03-2.21.33-2.8.95-1.24,1.3-1.15,4.1-1.04,7.63,0,.08,0,.16,0,.24,2.46,2.36,5.08,5.79,7.08,10.75,3.21,7.95.78,24.25.68,24.94l-.18,1.2-.27-.24ZM29.89,30.74c-.12.22-.25.43-.36.64-.49.9-.85,1.55-1.37,1.81l-.23.11c-1.2.59-1.88.98-1.88,2,0,1.72-.56,4.01-1.59,4.86-.14.11-.29.22-.45.34-.75.56-1.53,1.13-1.8,2.64-.08.46-.15.89-.2,1.29-.22,1.47-.4,2.64-1.22,3.59-1.01,1.18-1,2.44.03,3.83.93,1.25.49,2.35.18,3.15-.33.83-.51,1.29.27,2.01,1.02.95,8.53,3.06,15.98,1.57,6.27-1.26,10.68-4.62,13.11-9.98l1.08-2.38-.02-.02c-.5-.45-12.18-11.13-8.97-23.44,1.15-4.4,1.11-8.59,1-12.05-1.05-.97-2.07-1.72-2.97-2.31-.81-.52-1.56-1.19-2.29-1.83-.97-.85-2.03-1.82-2.68-1.76-.06,0-.23.03-.44.34-1.3,1.84-2.43,9.45-2.58,15.01-.08,3.18-1.09,4.43-1.83,5.35-.59.73-.83,1.04-.45,2.15l.11.34c.41-.36.88-.63,1.42-.74.92-.2,1.93.11,2.97.92,4.03,3.12,11.54,16.13,11.86,16.69l.5.86-.99.12c-3.83.45-7.18-2.86-9.63-5.27-.82-.8-1.52-1.5-2.08-1.9-1.91-1.35-3.39-4.87-4.49-7.95ZM30.8,29.38c1.04,2.99,2.57,6.97,4.34,8.23.64.46,1.38,1.19,2.24,2.03,2,1.98,4.67,4.61,7.49,4.9-1.85-3.13-7.74-12.84-10.96-15.33-.71-.55-1.35-.78-1.9-.67-.45.09-.85.41-1.22.83ZM44.8,12.05c.07,3.26-.03,7.04-1.08,11.05-2.5,9.58,4.99,18.44,7.67,21.23.51-4.05,1.8-16.59-.77-22.95-1.67-4.12-3.76-7.13-5.82-9.33Z"/>
          <path class="cls-2" d="M60.32,45.82l-.73-1.09c.06-.04,6.02-4.15,7.31-10.32l1.28.27c-1.39,6.71-7.59,10.96-7.85,11.14Z"/>
          <path class="cls-2" d="M61.12,46.6l-.94-.91c.25-.26,6.17-6.31,11.93-6.77l.1,1.31c-5.27.43-11.03,6.32-11.09,6.38Z"/>
          <path class="cls-2" d="M84.55,74.46c-2.19-2.68-9.36-6.83-13.21-9.06l-1.45-.84c-.88-.52-1.66-.68-2.3-.46-.95.31-1.38,1.33-1.39,1.35l-1.22-.5c.03-.06.66-1.57,2.17-2.09,1.03-.35,2.17-.15,3.4.57l1.44.84c4.2,2.43,11.23,6.49,13.56,9.37l-1.02.83Z"/>
          <path class="cls-2" d="M80.72,167.98c-2.82,0-4.94-1.37-5.97-3.86-1.56-3.77-.16-9.2,3.26-12.62,2.28-2.28,3.15-4.63,2.39-6.45-.65-1.57-2.4-2.55-4.57-2.55h-6.88l-.19-.31c-.65-1.05-1.3-1.97-1.96-2.82h0c-6.81-2.52-8.19-7.28-8.25-7.49l-.33-1.21c-.92-.24-1.46-.55-1.52-.57l-1.04-.59,1.05-.56c.55-.29,2.86-2.89,4.72-4.97,1.87-2.1,3.8-4.27,4.94-5.3,2.33-2.1,4.93-1.41,7.95-.6.48.13.98.26,1.49.39.36.08.63.06.8-.08.24-.19.37-.66.36-1.29-.02-2-1.3-4.76-2.53-5.47-.67-.39-1.68-.65-2.66-.89-1.76-.44-3.57-.9-4.25-2.26-.37-.75-.32-1.68.14-2.75.44-1.03,1-1.62,1.68-1.79,1.08-.27,2.08.55,3.22,1.48,1.07.87,2.28,1.86,3.61,1.96,1.87.1,2.6-.73,3.46-1.72.64-.73,1.37-1.56,2.57-1.92.84-.24,1.47-.14,1.84.34.39.49.33,1.22.13,1.9.98-.44,1.63-1,1.96-1.68.55-1.13.35-2.65-.69-5.27-.33-.83-.71-1.7-1.11-2.6-2.06-4.7-4.62-10.55-2.09-16.56,0,0,0-.01,0-.02h0s.02-.06.02-.06c-.58-.61-1-1.62-.49-3.26.6-1.99,1.1-2.35,1.52-2.43.32-.07.61.05.82.29.65.75.36,2.98-.27,4.9.96.37,2.32.28,2.84.2l.5-.08.2.46c3.63,8.22,5.54,8.35,9.35,8.6,1.34.09,2.85.19,4.73.61,4.49,1.01,5.67,6.48,6.44,10.09.19.86.41,1.9.61,2.38.13-.17.34-.48.63-1.04.9-1.74.41-4.22-1.44-7.37-3.2-5.42-9.38-10.78-9.45-10.84l-.2-.17-.03-.26c-1.61-15.1,9.18-23.75,17.85-30.7,4.43-3.55,8.26-6.62,9.52-9.81,2.91-7.33-.57-10.67-5.39-15.28-1.3-1.24-2.64-2.53-3.99-4-3.28-3.61-2.64-5.24-1.28-7.32,1.06-1.62,2.26-3.45-.11-8.19-1.37-2.74-2.96-4.24-4.72-4.48-3.18-.43-6.34,3.13-8.06,5.03l-.34.38c-1.85,2.05-5.11,8.39-6.49,13.33h0s0,0,0,0c.26.45.5.85.7,1.14.83,1.24,1.79,2.62,2.76,4.01,1.47,2.1,2.99,4.28,4,5.93,1.67,2.73,2.92,7.21,3.49,10.23.13.7.31,1.23.46,1.7.51,1.55.73,2.57-.49,5.7-.33.82-.9,2.07-1.6,3.63-2.83,6.21-8.1,17.76-8.15,25.27-.01,2.08-.2,4-1.44,4.02h0c-2.3,0-4.81-10.23-4.96-16.19-.09-3.45-.24-6.75-.38-9.84-.23-5.02-.43-9.35-.31-12.94.09-3.06,1.13-6.73,2.15-10.28.94-3.3,1.83-6.41,1.83-8.63,0-.96.19-2.16.56-3.57-1.7-3.03-4.28-8.31-5.83-11.5-.68-1.39-1.32-2.71-1.43-2.88-.01-.02-2.61-3.67-6.44-3.67h-.1c-1.54.02-3.48,2.79-3.99,15.89-.1,2.97.19,7.23.44,10.98.16,2.44.31,4.56.32,6,.04,1.94,1.05,5.5,2.13,9.26.87,3.06,1.78,6.21,2.32,9.03.67,3.5,3.17,10.86,7.03,20.72l-1.22.48c-2.75-7.03-6.22-16.38-7.1-20.95-.53-2.75-1.43-5.89-2.29-8.91-1.1-3.85-2.14-7.49-2.18-9.6-.01-1.41-.16-3.6-.32-5.93-.25-3.79-.54-8.08-.44-11.12.31-7.97,1.19-17.11,5.28-17.16.04,0,.08,0,.12,0,3.85,0,6.75,3.07,7.54,4.27.14.22.56,1.08,1.5,3.02,1.37,2.81,3.53,7.24,5.17,10.3,1.58-4.88,4.62-10.62,6.41-12.61l.34-.38c1.88-2.09,5.38-5.96,9.21-5.46,2.21.3,4.14,2.05,5.71,5.19,2.72,5.41,1.17,7.77.04,9.49-1.06,1.62-1.7,2.59,1.15,5.72,1.31,1.44,2.64,2.71,3.92,3.94,5,4.79,8.94,8.56,5.71,16.72-1.39,3.51-5.35,6.68-9.92,10.35-8.37,6.71-18.78,15.05-17.4,29.29,1.12.99,6.5,5.87,9.52,10.99,2.09,3.56,2.59,6.47,1.48,8.63-.63,1.22-1.16,2.03-1.99,1.91-.96-.12-1.22-1.35-1.69-3.57-.71-3.29-1.77-8.26-5.44-9.09-1.78-.4-3.24-.5-4.53-.59-4.32-.29-6.6-.8-10.27-8.94-.68.06-1.93.08-2.99-.32-2.19,5.52.11,10.76,2.14,15.39.4.92.79,1.8,1.12,2.64.87,2.19,1.56,4.47.65,6.33-.65,1.31-2,2.25-4.15,2.86l-1.51.43.76-1.38c.4-.72.68-1.6.61-1.88-.03.02-.16.01-.44.09-.83.25-1.35.84-1.95,1.52-.96,1.09-2.04,2.33-4.54,2.16-1.74-.13-3.18-1.31-4.34-2.26-.81-.66-1.64-1.33-2.09-1.22-.25.06-.53.43-.79,1.03-.31.71-.37,1.25-.17,1.65.4.82,1.92,1.2,3.39,1.57,1.07.27,2.17.55,3,1.03,1.79,1.03,3.16,4.33,3.18,6.59,0,.51-.05.97-.19,1.35.61-.42,1.53-.73,3.03-.73,4.64,0,14.26,9.63,15.34,10.73l.43.44-.41.46c-.06.07-.12.14-.18.2l.91.16-.39.79c-.21.42-5.33,10.41-20.43,10.41-2.75,0-5.26-.29-7.47-.86.26.37.51.76.76,1.16h6.16c2.71,0,4.93,1.28,5.78,3.36.97,2.34,0,5.21-2.68,7.87-3.07,3.07-4.36,7.88-2.98,11.19.57,1.39,1.87,3.05,4.76,3.05,6.35,0,25.65-9.47,41.47-31.36,6.23-8.62,9.53-27.23,9.89-29.32l.06-.32,1.3.22-.07.34c-.36,2.1-3.71,20.99-10.12,29.85-15.04,20.81-34.36,31.9-42.53,31.9ZM67.6,138.27c2.48.87,5.43,1.32,8.78,1.32,11.82,0,17.25-6.6,18.78-8.9-.07-.01-.13-.02-.19-.03-4.37,3.16-9.68.7-13.36-1.51-6.55-.31-10.42.29-14.43,1.03-1.45.27-2.81.42-4.04.46-1.73.45-3.22.39-4.33.18l.64.31c.17.08,4.09,2.01,8.13,7.14ZM60.86,133.55c.74,1.04,1.95,2.33,3.91,3.45-1.48-1.57-2.85-2.69-3.91-3.45ZM84.73,129.36c2.65,1.28,5.55,2.08,8.17.97-2.89-.43-5.6-.75-8.17-.97ZM60.98,129.23c.51.07,1.17.11,1.99.1.38-.12.73-.23,1.09-.39,7.89-3.31,13.64-3.85,17.1-1.62l.34.22c.17.11.34.22.52.32,3.88.22,8.02.68,12.63,1.41.14-.11.29-.23.42-.36-3.16-3.13-10.65-9.88-13.95-9.88-2.1,0-2.55.64-3.04,1.32-.47.66-1.02,1.49-2.81,1.34-1.55-.13-2.36-.55-3.08-.93-.78-.41-1.46-.76-3.13-.76-1.3,0-2.37,1.73-3.61,3.74-1.19,1.93-2.51,4.07-4.48,5.49ZM65.02,121.97c-.82.89-1.71,1.9-2.6,2.89-1.68,1.88-2.96,3.32-3.87,4.22l.44-.2c2.44-1.11,3.98-3.62,5.35-5.83.23-.37.45-.73.67-1.08ZM75.87,127.27c-1.97,0-4.31.43-7,1.28,2.91-.49,5.96-.86,10.23-.79-.93-.33-2.01-.49-3.22-.49ZM69.17,118.69c1.93.01,2.8.47,3.64.91.67.35,1.3.68,2.58.79.91.06,1.18-.17,1.54-.67-.36.13-.82.18-1.41.04-.53-.13-1.04-.27-1.53-.4-1.91-.51-3.48-.93-4.82-.66ZM94.61,22.64c-.15.74-.22,1.39-.22,1.94,0,2.4-.91,5.6-1.88,8.99-.99,3.47-2.02,7.07-2.1,9.96-.12,3.54.08,7.85.31,12.84.14,3.1.29,6.41.38,9.87.16,6.41,2.46,13.42,3.55,14.74.1-.33.23-1.04.24-2.54.05-7.79,5.39-19.51,8.26-25.81.7-1.53,1.26-2.76,1.57-3.56,1.11-2.84.88-3.54.47-4.81-.16-.51-.36-1.08-.5-1.87-.59-3.13-1.84-7.38-3.32-9.79-.99-1.62-2.5-3.78-3.95-5.87-.97-1.39-1.94-2.78-2.78-4.04-.01-.02-.03-.04-.04-.06ZM83.15,76.66c-.03.08-.05.17-.08.26-.14.43-.18.78-.17,1.07.12-.5.2-.94.25-1.33Z"/>
          <path class="cls-2" d="M87.35,76.49c-.12-.36-.26-.71-.45-1.13-2.46-5.37-11.41-15.14-14.39-16.29-.97-.38-1.71-.43-2.16-.16-.41.25-.46.78-.46.79l-1.31-.1c0-.12.11-1.18,1.06-1.79.81-.52,1.94-.5,3.35.04,3.31,1.28,12.44,11.14,15.11,16.97.22.47.38.87.51,1.28l-1.24.41Z"/>
          <path class="cls-2" d="M133.58,106.82c-1.21,0-2.64-.31-4.26-1.15-2.28-1.19-4.67-3.07-7.21-5.06-4.49-3.52-9.12-7.16-13.4-7.16-.13,0-.26,0-.39.01l-.07-1.31c.15,0,.3-.01.46-.01,4.73,0,9.55,3.78,14.21,7.44,2.49,1.95,4.84,3.79,7.01,4.92,2.32,1.21,4.42,1.33,6.23.36,1.82-.97,2.6-2.62,2.62-2.9.1-1.16,1.59-1.55,2.58-1.8.14-.04.27-.07.37-.1.23-.34.79-.93,2.21-2.26l.21-.2c.23-.23.56-.55,6.28-.19,1.37.09,1.48-.49,1.58-1.61.04-.43.08-.83.27-1.15.48-.77,2.35-1.18,5.85-1.73l.39-.06c.15-.02.2-.06.2-.06.01-.11-.18-.61-.28-.87-.21-.56-.43-1.14-.27-1.67.07-.22.18-.46.3-.71.44-.91.67-1.51-.14-2.32-1.46-1.46-1.39-3.03-1.35-4.28,0-.22.02-.44.02-.65v-.39c.02-1.61-.09-2.29-.82-2.37-1.89-.21-1.76-2.31-1.67-3.7.02-.31.04-.62.04-.9,0-.95-1.69-1.46-1.71-1.47l-.27-.08-.67-1.27c-21.79-2.66-34.43,8.02-34.56,8.13l-.93-.92c8.61-10.04,21.78-11.23,28.12-11.79,1.49-.14,2.67-.24,3.21-.41.7-.22,1.01-.92.92-2.07-.17-2.16-1.63-4.37-2.22-4.46-2.02-.3-4.06-4.98-4.45-5.92-.02-.03-3.68-6.82-22.12.36-18.77,7.3-20.5,26.62-20.51,26.81l-1.31-.1c.02-.2,1.82-20.34,21.35-27.93,19.71-7.67,23.63,0,23.79.33,1,2.39,2.59,5.03,3.45,5.16,1.57.23,3.15,3.3,3.33,5.65.14,1.77-.53,3.01-1.83,3.42-.68.21-1.85.32-3.48.46-4.92.44-14.07,1.26-21.77,6.48,6.02-2.94,16.12-6.15,29.52-4.45l.34.04.74,1.39c.69.25,2.39,1.04,2.39,2.64,0,.3-.02.64-.04.98-.1,1.55-.05,2.25.51,2.31,2.02.22,2,2.31,1.99,3.69v.38c0,.23-.01.46-.02.7-.04,1.16-.09,2.25.97,3.31,1.5,1.5.81,2.95.39,3.82-.09.19-.18.36-.22.52-.03.13.14.57.24.83.25.66.53,1.4.17,2.02-.21.36-.59.59-1.11.67l-.39.06c-1.11.17-4.49.7-4.97,1.16-.01.04-.04.34-.05.54-.09.96-.27,2.95-2.97,2.8-3.52-.22-5-.16-5.38-.09l-.14.13c-1.35,1.27-1.83,1.77-1.97,1.96-.12.43-.62.56-1.19.71-.98.25-1.52.47-1.6.65-.07.79-1.2,2.78-3.24,3.9-.81.45-1.91.84-3.28.84Z"/>
          <path class="cls-2" d="M43.45,209.87l-1.08-.74c12.35-18.07,10.44-40.06,6.47-53.35-3.89-2.97-6.64-6.29-6.59-9.74,0-.51.03-2.04,1.03-2.37,1.04-.33,1.98.94,2.29,1.36,1.37,1.82,3,5.35,4.4,10.01,8.95,6.6,24.13,11.59,24.34,11.66l-.4,1.25c-.85-.28-14.29-4.7-23.38-10.94,3.64,13.67,4.89,35.34-7.09,52.86ZM43.67,144.94c.01.08-.1.38-.11,1.11-.03,2.58,1.8,5.14,4.58,7.52-.36-1.08-.74-2.08-1.12-3-1.61-3.93-2.91-5.45-3.35-5.63Z"/>
        </g>
        <path class="cls-2" d="M108.7,206.09c-12.77-26.06,5.47-60.81,5.66-61.16l1.16.62c-.18.34-18.11,34.51-5.64,59.96l-1.18.58Z"/>
      </g>
      <g>
        <path class="cls-1" d="M202.8,79.19l1.29-1.85h1.05l.09,7.75h-.95c-.59-2.38-1.47-4.11-2.64-5.2-1.16-1.09-2.5-1.64-4.02-1.64-1.26,0-2.3.38-3.1,1.14-.8.76-1.21,1.68-1.21,2.78,0,.68.15,1.28.46,1.79.31.51.76.93,1.37,1.25s1.75.66,3.44,1.03c2.37.51,4.03,1.04,4.98,1.56.95.53,1.66,1.19,2.13,1.99.47.8.7,1.74.7,2.81,0,1.92-.64,3.5-1.93,4.76-1.29,1.26-2.95,1.89-4.99,1.89-2.19,0-4.1-.71-5.72-2.13l-1.62,1.98h-1.04v-8.23h1.04c.4,2.27,1.3,4.06,2.7,5.38s2.97,1.97,4.73,1.97c1.42,0,2.58-.42,3.47-1.26s1.34-1.86,1.34-3.05c0-.68-.17-1.28-.5-1.79-.34-.51-.87-.94-1.59-1.29-.73-.35-2.16-.77-4.3-1.27-2.35-.56-3.95-1.18-4.8-1.87-1.2-.98-1.8-2.36-1.8-4.15s.6-3.4,1.79-4.59c1.19-1.19,2.72-1.79,4.58-1.79.89,0,1.74.16,2.54.47.8.32,1.64.84,2.5,1.58Z"/>
        <path class="cls-1" d="M212.83,79.88h.96v5.49h4.35v1.32h-4.35v8.64c0,.75.18,1.32.53,1.72s.8.6,1.35.6c.65,0,1.21-.3,1.67-.91s.73-1.6.8-2.99h.96c-.06,1.79-.46,3.12-1.22,3.99-.76.87-1.74,1.3-2.95,1.3-1.11,0-1.98-.3-2.61-.91-.63-.61-.94-1.41-.94-2.39v-9.04h-2.34v-1.01c1.07-.18,1.88-.63,2.44-1.34.83-1.06,1.27-2.55,1.34-4.47Z"/>
        <path class="cls-1" d="M227.67,84.96c1.81,0,3.33.65,4.56,1.96s1.85,3.03,1.85,5.17c0,1.47-.28,2.73-.83,3.77-.55,1.04-1.34,1.86-2.36,2.46-1.02.6-2.12.91-3.3.91-1.74,0-3.22-.66-4.43-1.98-1.21-1.32-1.82-3.04-1.82-5.14s.61-3.84,1.83-5.16c1.22-1.32,2.72-1.98,4.5-1.98ZM227.67,85.98c-1.07,0-1.95.49-2.64,1.46-.69.97-1.03,2.51-1.03,4.61s.34,3.7,1.03,4.69c.68.99,1.57,1.48,2.65,1.48s2.03-.49,2.72-1.48c.69-.99,1.04-2.6,1.04-4.84,0-2.08-.34-3.58-1.03-4.51-.68-.93-1.6-1.39-2.74-1.39Z"/>
        <path class="cls-1" d="M236.43,85.37h5.91v.99h-.78c-.38,0-.66.06-.82.18-.16.12-.24.28-.24.48s.05.44.14.68l3.04,7.62,2.63-7.23c-.37-.77-.69-1.25-.97-1.44-.28-.19-.77-.28-1.47-.28v-.99h6.5v.99h-.55c-.5,0-.84.06-1.03.19-.19.13-.28.31-.28.54,0,.17.04.37.13.6l3.06,7.62,2.42-6.77c.16-.45.25-.83.25-1.15s-.12-.56-.37-.73c-.25-.17-.72-.27-1.41-.3v-.99h5.24v.99c-.65.11-1.15.31-1.48.61-.34.3-.62.76-.85,1.39l-3.9,10.88h-.85l-3.78-9.42-3.39,9.42h-.83l-4.83-11.9c-.15-.37-.33-.62-.52-.75-.19-.13-.52-.2-.98-.22v-.99Z"/>
        <path class="cls-1" d="M274.33,97.35l.52.8c-.7.72-1.48,1.08-2.33,1.08-.65,0-1.2-.18-1.65-.53-.45-.35-.84-.98-1.17-1.87-.91.96-1.71,1.6-2.4,1.92-.69.32-1.52.48-2.49.48-1.38,0-2.43-.3-3.15-.89s-1.08-1.36-1.08-2.29c0-1.4.82-2.56,2.46-3.48,1.64-.92,3.83-1.54,6.56-1.85v-2.04c0-.73-.29-1.35-.88-1.87-.58-.52-1.33-.78-2.23-.78-.83,0-1.55.17-2.16.52-.43.26-.65.51-.65.76,0,.14.12.37.35.68.28.38.42.72.42,1.02,0,.43-.14.78-.42,1.06-.28.27-.64.41-1.09.41-.48,0-.88-.16-1.2-.49-.32-.33-.48-.74-.48-1.25,0-.95.53-1.82,1.6-2.6,1.07-.79,2.47-1.18,4.2-1.18,1.6,0,2.82.34,3.66,1.03.84.7,1.26,1.55,1.26,2.54v7.36c0,.65.11,1.13.32,1.44.21.32.48.47.82.47.37,0,.77-.15,1.18-.46ZM269.62,91.67c-2.43.33-4.16.88-5.17,1.64-.76.58-1.14,1.39-1.14,2.44,0,.74.2,1.31.59,1.73.39.42.91.62,1.54.62,1.13,0,2.11-.43,2.94-1.29.83-.86,1.24-1.93,1.24-3.23v-1.93Z"/>
        <path class="cls-1" d="M276.85,85.37l4.84-.24v5.45c.52-1.79,1.14-3.15,1.87-4.07.73-.92,1.63-1.38,2.7-1.38.73,0,1.31.22,1.75.67.44.45.65,1.04.65,1.79,0,.6-.15,1.07-.44,1.41-.29.34-.66.5-1.1.5s-.78-.14-1.04-.43c-.26-.29-.4-.68-.4-1.16,0-.32.08-.61.23-.89.14-.25.21-.4.21-.45,0-.14-.09-.22-.27-.22-.39,0-.84.23-1.34.69-.69.64-1.22,1.52-1.59,2.64-.58,1.74-.86,3.14-.86,4.18v2.89c0,.33.12.58.34.75.23.17.62.26,1.18.26h1.71v1.08h-8.36v-1.08h1.34c.45,0,.79-.09,1.02-.27.23-.18.34-.39.34-.64v-8.58c0-.65-.14-1.13-.42-1.43-.28-.3-.67-.45-1.19-.45h-1.18v-1.02Z"/>
        <path class="cls-1" d="M291.92,85.37h10.68v.86l-8.47,11.52h4.13c.95,0,1.71-.3,2.27-.89s1-1.7,1.31-3.32h.96l-.32,5.29h-11.32v-.99l8.45-11.45h-3.58c-.75,0-1.31.1-1.67.31-.37.21-.69.55-.96,1.02-.27.47-.52,1.29-.75,2.45h-1.06l.33-4.8Z"/>
        <path class="cls-1" d="M305.15,85.37h6.45v.98h-.6c-.57,0-.95.08-1.16.22s-.31.36-.31.64c0,.12.03.25.09.37l3.75,8.09,2.79-6.71c.2-.48.3-.95.3-1.41,0-.35-.14-.63-.42-.83-.28-.2-.83-.32-1.67-.38v-.98h5.6v.98c-1.08.11-1.81.59-2.18,1.45l-4.98,11.59c-.85,1.97-1.7,3.32-2.55,4.06-.86.75-1.79,1.12-2.77,1.12-.72,0-1.29-.2-1.73-.59-.44-.39-.65-.88-.65-1.45,0-.43.13-.79.4-1.06.27-.28.6-.42,1.01-.42.36,0,.67.12.92.36.25.24.37.53.37.86,0,.11-.02.25-.06.43-.04.14-.06.25-.06.32,0,.23.15.34.45.34.32,0,.67-.11,1.07-.34.4-.23.77-.6,1.11-1.11.35-.51.95-1.63,1.81-3.37l-5.11-10.95c-.18-.38-.41-.67-.68-.86-.27-.19-.67-.31-1.2-.38v-.98Z"/>
        <path class="cls-1" d="M323.48,93.76c.59,1.66,1.28,2.8,2.05,3.44.77.64,1.72.96,2.85.96,1.04,0,1.85-.23,2.41-.68.56-.45.84-1.03.84-1.73,0-.4-.1-.75-.31-1.06-.21-.3-.49-.53-.86-.68-.37-.15-1.31-.37-2.84-.65-1.46-.29-2.48-.59-3.05-.91-.58-.32-1.02-.75-1.34-1.31-.32-.56-.48-1.16-.48-1.81,0-.99.33-1.88.99-2.69.85-1.02,2.05-1.54,3.58-1.54,1.17,0,2.25.37,3.25,1.11l.95-1.01h.59l.37,4.8h-.96c-.42-1.36-.99-2.34-1.71-2.94s-1.61-.9-2.66-.9c-.91,0-1.63.22-2.15.67s-.78.99-.78,1.63c0,.56.24,1.03.72,1.41.47.38,1.39.69,2.76.91,1.59.27,2.63.5,3.11.68.79.29,1.39.73,1.83,1.33s.65,1.33.65,2.19c0,1.19-.47,2.19-1.4,3.02-.93.82-2.12,1.24-3.56,1.24-1.33,0-2.57-.44-3.71-1.32l-1.05,1.21h-.76l-.29-5.36h.96Z"/>
        <path class="cls-1" d="M337.27,85.37h10.68v.86l-8.47,11.52h4.13c.95,0,1.71-.3,2.27-.89s1-1.7,1.31-3.32h.96l-.32,5.29h-11.32v-.99l8.45-11.45h-3.58c-.75,0-1.31.1-1.67.31-.37.21-.69.55-.96,1.02-.27.47-.52,1.29-.75,2.45h-1.06l.33-4.8Z"/>
        <path class="cls-1" d="M363.44,92.19h-9.64c.05,2.05.43,3.5,1.15,4.34.82.95,1.87,1.42,3.15,1.42,1.88,0,3.39-1.07,4.53-3.2l.93.4c-1.4,2.72-3.42,4.08-6.06,4.08-1.8,0-3.32-.65-4.55-1.95s-1.85-2.97-1.85-5c0-2.18.61-3.95,1.82-5.3,1.21-1.35,2.7-2.02,4.48-2.02,1.3,0,2.43.33,3.38,1.01.95.67,1.66,1.63,2.14,2.89.33.88.51,1.99.53,3.33ZM353.8,91.17h5.83c.34,0,.61-.12.8-.35.19-.23.29-.63.29-1.2,0-1.05-.33-1.95-.98-2.69-.66-.74-1.43-1.11-2.32-1.11-1,0-1.84.45-2.54,1.34-.7.89-1.06,2.23-1.08,4.01Z"/>
        <path class="cls-1" d="M366.11,85.37l4.47-.27c.18.84.32,1.83.4,2.96.6-.98,1.32-1.71,2.13-2.2.82-.49,1.75-.73,2.78-.73.89,0,1.64.17,2.24.52s1.09.9,1.45,1.66c.36.76.55,1.61.55,2.54v6.55c0,.49.11.84.33,1.04.22.21.59.31,1.11.31h.95v1.08h-7.1v-1.08h.68c.63,0,1.07-.1,1.32-.3s.37-.5.37-.91v-5.76c0-1.25-.19-2.18-.57-2.79-.54-.86-1.35-1.29-2.44-1.29s-1.99.44-2.71,1.31c-.72.87-1.08,2.01-1.08,3.41v4.99c0,.49.11.84.34,1.04.23.21.6.31,1.11.31h.93v1.08h-7.13v-1.08h.93c.47,0,.83-.1,1.07-.29s.37-.43.37-.72v-8.69c0-.58-.16-1.01-.47-1.31-.31-.3-.76-.45-1.34-.45h-.69v-.93Z"/>
        <path class="cls-1" d="M384.42,85.37l5.36-.16v11.58c0,.32.08.54.23.68.22.19.5.29.83.29h1.52v1.08h-7.66v-1.08h1.42c.42,0,.73-.1.93-.31s.29-.5.29-.9v-8.48c0-.54-.15-.94-.46-1.21-.31-.27-.76-.41-1.37-.41h-1.11v-1.08ZM388.15,77.33c.43,0,.81.16,1.14.49.33.33.49.71.49,1.15s-.16.8-.47,1.12c-.32.32-.69.47-1.13.47s-.82-.16-1.14-.48c-.32-.32-.48-.7-.48-1.13s.16-.81.49-1.14c.33-.33.7-.49,1.12-.49Z"/>
        <path class="cls-1" d="M407.17,92.19h-9.64c.05,2.05.43,3.5,1.15,4.34.82.95,1.87,1.42,3.15,1.42,1.88,0,3.39-1.07,4.53-3.2l.93.4c-1.4,2.72-3.42,4.08-6.06,4.08-1.8,0-3.32-.65-4.55-1.95s-1.85-2.97-1.85-5c0-2.18.61-3.95,1.82-5.3,1.21-1.35,2.7-2.02,4.48-2.02,1.3,0,2.43.33,3.38,1.01.95.67,1.66,1.63,2.14,2.89.33.88.51,1.99.53,3.33ZM397.52,91.17h5.83c.34,0,.61-.12.8-.35.19-.23.29-.63.29-1.2,0-1.05-.33-1.95-.98-2.69-.66-.74-1.43-1.11-2.32-1.11-1,0-1.84.45-2.54,1.34-.7.89-1.06,2.23-1.08,4.01Z"/>
        <path class="cls-1" d="M426.23,77.58l5.26-.24v18.42c0,.72.14,1.23.41,1.54.27.31.68.46,1.23.46h.93v1.08h-4.6l-.35-2.75c-.55.98-1.19,1.71-1.92,2.21-.73.49-1.55.74-2.46.74-1.53,0-2.84-.64-3.92-1.93-1.08-1.28-1.62-2.98-1.62-5.09,0-2.28.69-4.1,2.07-5.46,1.08-1.06,2.33-1.59,3.74-1.59.86,0,1.64.21,2.32.65.69.43,1.28,1.08,1.79,1.95v-7.6c0-.4-.16-.72-.47-.96-.31-.23-.8-.35-1.46-.35h-.96v-1.08ZM425.4,86.16c-1.03,0-1.86.43-2.46,1.28-.61.85-.91,2.29-.91,4.31,0,2.19.31,3.74.93,4.63.62.9,1.42,1.34,2.4,1.34,1.04,0,1.94-.5,2.68-1.5.74-1,1.11-2.46,1.11-4.39,0-1.82-.4-3.25-1.19-4.3-.69-.92-1.54-1.38-2.56-1.38Z"/>
        <path class="cls-1" d="M441.18,77.33v19.51c0,.27.08.47.24.62.24.19.53.29.88.29h1.42v1.08h-7.63v-1.08h1.35c.44,0,.77-.1.98-.32s.32-.51.32-.89v-16.38c0-.48-.13-.83-.39-1.05-.35-.31-.79-.46-1.31-.46h-1.21v-1.08l5.33-.24Z"/>
        <path class="cls-1" d="M460.18,97.35l.52.8c-.7.72-1.48,1.08-2.33,1.08-.65,0-1.2-.18-1.65-.53-.45-.35-.84-.98-1.17-1.87-.91.96-1.71,1.6-2.4,1.92-.69.32-1.52.48-2.49.48-1.38,0-2.43-.3-3.15-.89s-1.08-1.36-1.08-2.29c0-1.4.82-2.56,2.46-3.48,1.64-.92,3.83-1.54,6.56-1.85v-2.04c0-.73-.29-1.35-.88-1.87-.58-.52-1.33-.78-2.23-.78-.83,0-1.55.17-2.16.52-.43.26-.65.51-.65.76,0,.14.12.37.35.68.28.38.42.72.42,1.02,0,.43-.14.78-.42,1.06-.28.27-.64.41-1.09.41-.48,0-.88-.16-1.2-.49-.32-.33-.48-.74-.48-1.25,0-.95.53-1.82,1.6-2.6,1.07-.79,2.47-1.18,4.2-1.18,1.6,0,2.82.34,3.66,1.03.84.7,1.26,1.55,1.26,2.54v7.36c0,.65.11,1.13.32,1.44.21.32.48.47.82.47.37,0,.77-.15,1.18-.46ZM455.46,91.67c-2.43.33-4.16.88-5.17,1.64-.76.58-1.14,1.39-1.14,2.44,0,.74.2,1.31.59,1.73.39.42.91.62,1.54.62,1.13,0,2.11-.43,2.94-1.29.83-.86,1.24-1.93,1.24-3.23v-1.93Z"/>
        <path class="cls-1" d="M471.9,77.58h9.71v1.08h-2.07c-.44,0-.78.11-1.02.34-.24.23-.36.52-.36.88v9.87l8-8.55c.46-.5.69-.97.69-1.41,0-.33-.16-.61-.47-.82-.32-.21-.83-.32-1.55-.32h-.59v-1.08h8.72v1.08h-.68c-.58,0-1.23.17-1.93.52-.7.34-1.35.82-1.94,1.44l-4.92,5.14,7.05,10.39c.39.58.8,1,1.22,1.24.42.24.92.37,1.49.37h.78v1.08h-9.58v-1.08h1.09c.79,0,1.32-.07,1.59-.2.26-.13.4-.3.4-.5,0-.18-.06-.36-.17-.55l-5.86-8.61-3.34,3.57v5.23c0,.33.1.57.29.72.31.23.67.34,1.09.34h2.07v1.08h-9.71v-1.08h1.87c.48,0,.83-.1,1.06-.29.23-.2.34-.45.34-.77v-16.97c0-.34-.13-.6-.39-.78-.26-.19-.69-.28-1.31-.28h-1.58v-1.08Z"/>
        <path class="cls-1" d="M501.5,84.96c1.81,0,3.33.65,4.56,1.96s1.85,3.03,1.85,5.17c0,1.47-.28,2.73-.83,3.77-.55,1.04-1.34,1.86-2.36,2.46-1.02.6-2.12.91-3.3.91-1.74,0-3.22-.66-4.43-1.98-1.21-1.32-1.82-3.04-1.82-5.14s.61-3.84,1.83-5.16c1.22-1.32,2.72-1.98,4.5-1.98ZM501.5,85.98c-1.07,0-1.95.49-2.64,1.46-.69.97-1.03,2.51-1.03,4.61s.34,3.7,1.03,4.69c.68.99,1.57,1.48,2.65,1.48s2.03-.49,2.72-1.48c.69-.99,1.04-2.6,1.04-4.84,0-2.08-.34-3.58-1.03-4.51-.68-.93-1.6-1.39-2.74-1.39Z"/>
        <path class="cls-1" d="M514.62,77.33v10.01c.57-.8,1.19-1.4,1.88-1.79.69-.4,1.44-.59,2.26-.59,1.58,0,2.92.62,4.01,1.85,1.09,1.24,1.64,2.86,1.64,4.89,0,2.19-.59,3.96-1.76,5.31-1.17,1.35-2.63,2.02-4.36,2.02-.82,0-1.57-.16-2.24-.49-.67-.33-1.36-.88-2.07-1.65-.55.87-1.07,1.58-1.58,2.14l-.57-.2c.27-1.1.4-2.25.4-3.45v-15.22c0-.47-.17-.84-.5-1.11-.33-.27-.8-.4-1.4-.4h-.6v-1.08l4.9-.24ZM518.25,86.24c-1.08,0-1.96.47-2.65,1.41-.68.94-1.02,2.5-1.02,4.67s.33,3.54,1.01,4.44c.67.89,1.55,1.33,2.63,1.33.98,0,1.76-.44,2.36-1.32.75-1.11,1.12-2.69,1.12-4.75s-.33-3.5-.98-4.41-1.48-1.37-2.46-1.37Z"/>
        <path class="cls-1" d="M527.15,85.37l5.36-.16v11.58c0,.32.08.54.23.68.22.19.5.29.83.29h1.52v1.08h-7.66v-1.08h1.42c.42,0,.73-.1.93-.31s.29-.5.29-.9v-8.48c0-.54-.15-.94-.46-1.21-.31-.27-.76-.41-1.37-.41h-1.11v-1.08ZM530.89,77.33c.43,0,.81.16,1.14.49.33.33.49.71.49,1.15s-.16.8-.47,1.12c-.32.32-.69.47-1.13.47s-.82-.16-1.14-.48c-.32-.32-.48-.7-.48-1.13s.16-.81.49-1.14c.33-.33.7-.49,1.12-.49Z"/>
        <path class="cls-1" d="M549.9,92.19h-9.64c.05,2.05.43,3.5,1.15,4.34.82.95,1.87,1.42,3.15,1.42,1.88,0,3.39-1.07,4.53-3.2l.93.4c-1.4,2.72-3.42,4.08-6.06,4.08-1.8,0-3.32-.65-4.55-1.95s-1.85-2.97-1.85-5c0-2.18.61-3.95,1.82-5.3,1.21-1.35,2.7-2.02,4.48-2.02,1.3,0,2.43.33,3.38,1.01.95.67,1.66,1.63,2.14,2.89.33.88.51,1.99.53,3.33ZM540.26,91.17h5.83c.34,0,.61-.12.8-.35.19-.23.29-.63.29-1.2,0-1.05-.33-1.95-.98-2.69-.66-.74-1.43-1.11-2.32-1.11-1,0-1.84.45-2.54,1.34-.7.89-1.06,2.23-1.08,4.01Z"/>
        <path class="cls-1" d="M556.13,79.88h.96v5.49h4.35v1.32h-4.35v8.64c0,.75.18,1.32.53,1.72s.8.6,1.35.6c.65,0,1.21-.3,1.67-.91s.73-1.6.8-2.99h.96c-.06,1.79-.46,3.12-1.22,3.99-.76.87-1.74,1.3-2.95,1.3-1.11,0-1.98-.3-2.61-.91-.63-.61-.94-1.41-.94-2.39v-9.04h-2.34v-1.01c1.07-.18,1.88-.63,2.44-1.34.83-1.06,1.27-2.55,1.34-4.47Z"/>
      </g>
    </g>
  </g>
</svg>