<?xml version="1.0" encoding="UTF-8"?>
<svg id="Layer_2" data-name="Layer 2" xmlns="http://www.w3.org/2000/svg" viewBox="0 0 381.07 499.26">
  <defs>
    <style>
      .cls-1 {
        fill: #2f2f2f;
        stroke-width: 0px;
      }
    </style>
  </defs>
  <g id="Layer_1-2" data-name="Layer 1">
    <g>
      <g>
        <path class="cls-1" d="M69.85,337.06c-2.76,0-3.87-1.71-4.3-2.83-2.39-6.17-1-11.65.34-16.94.77-3.03,1.56-6.16,1.64-9.41.08-3.74,3.13-8.63,6.64-14.29,4.8-7.71,10.13-16.27,8.52-22.78-1.74,5.68-6.03,15.29-15.39,17.03l-1.85.34v-1.88c0-.25.04-3.02,1.89-7.73-4.47,6.97-8.56,13.04-10.71,15.93-4.48,6.03-20.21,25.41-34.91,21.35-9.83-2.69-11.05-5.57-11.7-9.34-.15-.9-.29-1.68-.7-2.45-.8-1.52-1.24-2.9-1.56-3.9-.18-.59-.42-1.32-.57-1.49-2.08.68-3-.35-3.32-.8-1.07-1.61-.2-4.27,2.66-8.14,1.1-1.48,4.34-4.11,8.41-7.11-2,1.12-3.76,2.12-5.11,2.93-1.08.65-4.36,2.62-6.83.97-3.08-2.08-2.41-7.97-1.12-16.05.58-3.68-.26-4.84-.94-5.77-1.63-2.24-1.25-3.76,1.73-7.08,1.26-1.4,2.43-2.83,3.58-4.23,4.07-4.97,7.92-9.67,14.88-12.38,3.18-1.24,6.02-3.06,8.48-4.84-3.53-1.28-7.06-3.13-10.47-5.52-6.56-4.59-8.92-15.28-4.97-22.17l2.51-16.01,1.66.42c.37.09,5.13,1.32,10.13,3.3-2.93-1.71-5.69-3.19-7.67-4.18-2.75-1.37-5.79-5.04-4.64-14.72.02-.35-.09-.9-.24-1.7-2.18-11.85-2.49-17.23-1.11-19.2.35-.51.45-1.57.57-2.69.31-3.14.79-7.89,7.4-10.54,8.78-3.47,23.02,9.39,25.37,11.58,3,1.48,29.68,15.83,34.93,57.83.11.73,2.49,15.71,1.74,29.07,2.1-2.25,5.15-3.64,7.68-3.77,2.08-.12,3.51.61,4.27,1.93.38-.45.79-.94,1.22-1.45,1.75-2.09,7.68-6.66,13.96-11.5,5.38-4.14,10.95-8.43,13.15-10.63,2.78-2.77,25.7-23.31,34.56-23.31.81,0,1.6-.02,2.36-.03,3.8-.1,7.14-.16,9.26,2.12,1.64,1.75,2.19,4.61,1.78,8.97-.68,7.14-4.62,10.71-8.44,14.17-2.39,2.17-4.87,4.42-6.71,7.65-2.39,4.19-7.31,8.16-12.06,12-5.31,4.31-10.81,8.75-11.48,12.63-1.04,5.92-6.7,11.33-11.52,13.84-2.63,1.38-4.95,1.99-7.35,1.93,1.31,4.75,2.63,14.75-5.6,23.46-8.45,8.95-8.13,15.08-7.92,19.14.04.86.08,1.63.04,2.3-.24,4.43-21.72,24.39-30.93,25.86-.44.07-.85.1-1.24.1ZM81.21,262.67l2.18,2.7c6.78,8.41-.62,20.3-6.56,29.85-3.15,5.05-6.12,9.82-6.18,12.71-.08,3.6-.92,6.91-1.73,10.11-1.27,5.04-2.48,9.81-.45,15.05.17.46.45.94,1.66.82,7.7-.51,27.92-19.51,28.79-23.06.02-.5-.02-1.16-.05-1.9-.22-4.31-.59-11.53,8.78-21.45,9.71-10.28,4.32-22.28,4.08-22.79l-1.8-3.87,3.87,1.8c1.8.84,4.58.41,7.61-1.16,5.02-2.62,9.17-7.5,9.88-11.62.89-5.03,6.58-9.64,12.61-14.52,4.53-3.66,9.2-7.45,11.3-11.13,2.1-3.66,4.76-6.08,7.34-8.41,3.67-3.33,6.85-6.22,7.43-12.15.31-3.32,0-5.52-.96-6.55-1.16-1.26-3.69-1.18-6.91-1.13-.77.02-1.58.03-2.42.03-6.41,0-26.77,16.82-32.35,22.4-2.34,2.34-7.74,6.5-13.45,10.9-5.87,4.52-11.94,9.19-13.46,11.02-1.59,1.92-2.92,3.4-3.84,4.4-1.25,2.86-4.09,6.43-8.53,10.69-14.47,13.87-18.19,24.38-19.14,28.71,9.24-3.63,11.71-17.89,11.74-18.05l.57-3.43ZM7.29,295.69c2.32,0,2.97,2.01,3.46,3.53.3.94.67,2.11,1.35,3.39.64,1.21.83,2.36,1,3.37.42,2.4.77,4.48,9.45,6.86,12.8,3.51,27.4-14.57,31.58-20.2,5.52-7.42,20.72-31.09,26.57-42.8,2.94-13.9-.65-36.61-.69-36.84-5.22-41.83-33.12-55.42-33.4-55.56l-.41-.28c-4.14-3.91-16.15-13.54-22.24-11.11-4.86,1.94-5.16,5-5.46,7.95-.16,1.54-.3,2.99-1.11,4.16-.42.7-.77,3.84,1.63,16.86.2,1.12.31,1.85.31,1.99,0,.09-.02.31-.05.64-.94,7.88,1.08,10.64,2.93,11.56.2.1,19.77,9.93,24.09,16.67,3.12,4.87,5.86,7.07,5.89,7.1l2.32,1.85-2.84.87c-4.69,1.38-13.29-9.01-14.97-11.11-2.79-3.49-12.38-6.78-17.46-8.22l-2.23,13.46c-2.97,4.9-1.74,14.3,3.94,18.27,3.77,2.65,7.81,4.61,11.75,5.78,2.68-2.04,4.82-3.62,6.83-3.96,2.53-.4,5.01,1.04,6.17,2.6.86,1.15,1.06,2.42.54,3.49-.67,1.38-2.33,2.12-4.95,2.2-2.55.08-5.24-.24-7.94-.9-3.02,2.28-6.68,4.91-11.07,6.62-6.19,2.42-9.79,6.8-13.59,11.45-1.18,1.44-2.39,2.9-3.68,4.34-1.77,1.96-1.88,2.54-1.88,2.63.02.06.22.33.36.52.85,1.18,2.29,3.14,1.5,8.09-.61,3.85-1.88,11.85-.22,12.98.41.26,1.53.1,3.48-1.05,8.25-4.96,31.63-17.17,31.87-17.29l1.57,2.7c-8.14,5.22-29.87,19.56-32.63,23.3-1.52,2.06-2.16,3.41-2.39,4.14.22-.03.43-.04.62-.04ZM83.32,251.57c-1.53,3.03-3.6,6.73-5.92,10.67,2.34-2.83,5.14-5.86,8.47-9.06,1.89-1.82,3.36-3.37,4.49-4.71l-7.04,3.1ZM92.88,240.98c-.07,0-.14,0-.21,0-2.56.13-6.03,2.24-6.93,5.07-.12.37-.27.79-.45,1.24l7.83-3.43c.17-.17.44-.45.78-.83.4-1.12.22-1.59.2-1.64-.13-.31-.69-.41-1.22-.41ZM36.71,234.78c1.54.24,3.03.33,4.49.3,1.83-.05,2.26-.47,2.26-.48,0,.02-.24-.34-.85-.81-.81-.61-1.83-.95-2.56-.8-.84.14-2,.85-3.33,1.79ZM40.46,204.23c1.19,1.4,2.36,2.65,3.47,3.72-.09-.13-.17-.25-.25-.38-.64-.99-1.77-2.13-3.21-3.34Z"/>
        <path class="cls-1" d="M95.04,236.4l-2.89-1.18c.03-.07,3.02-7.56,3.42-15.9.08-1.65.02-3.67-.04-5.89-.29-9.94-.68-23.55,9.25-30.23l1.74,2.59c-8.5,5.72-8.13,18.34-7.87,27.56.07,2.32.12,4.41.04,6.13-.43,8.89-3.52,16.6-3.65,16.93Z"/>
        <path class="cls-1" d="M97.63,236.63l-2.66-1.62c.23-.37,5.58-9.19,9.67-12.64.9-.75,2.36-1.54,4.21-2.53,7.23-3.88,19.3-10.38,17.28-24.51l3.08-.44c2.33,16.3-11.47,23.72-18.89,27.71-1.62.88-3.02,1.63-3.67,2.17-3.7,3.13-8.97,11.79-9.02,11.88Z"/>
        <path class="cls-1" d="M107.36,151.67c-.98,0-1.86-.4-2.5-1.17-1.65-2-1.41-6.74,4.69-13.54,2.38-2.66,4.28-5.75,5.75-8.73-6.46,7.19-15.29,12.02-26.08,14.19-18.39,3.69-37.33-1.32-40.76-4.51-3.42-3.17-2.26-6.09-1.43-8.22.76-1.91,1.1-2.98-.02-4.49-3.31-4.47-3.28-9.09.07-13,1.37-1.6,1.69-3.74,2.18-6.98.15-.98.3-2.03.51-3.16.85-4.82,3.54-6.8,5.5-8.25.32-.24.64-.47.93-.71,1.38-1.13,2.64-5.49,2.64-9.14,0-4.48,3.45-6.19,6.22-7.55l.53-.27c.41-.26,1.28-1.85,1.92-3.01.65-1.18,1.39-2.53,2.26-3.8-.17-.48-.32-.96-.48-1.42l-.38-1.11c-1.45-4.28.03-6.12,1.61-8.08,1.55-1.92,3.48-4.32,3.66-10.84.32-12.15,2.84-31.91,6.7-37.42.88-1.25,1.98-1.95,3.25-2.11,2.79-.39,5.58,2.11,8.79,4.94,1.65,1.45,3.36,2.96,5.08,4.07,1.64,1.06,3.4,2.33,5.24,3.86-.23-8.01-.1-14.33,3.4-18.01C108.63,1.13,111.53.08,115.5,0c.07,0,.15,0,.23,0,18.69,0,25.62,42.75,28.11,68.3,1.24,12.73-3.67,30.73-6.26,39.09,1.84-1.02,3.97-1.75,5.7-1.1,1.04.39,2.36,1.41,2.69,4.07.31,2.48-.24,4.48-1.65,5.93-1.48,1.52-3.55,2.03-5.07,2.19.1,2.02-.44,4-1.56,5.64-1.2,1.75-3.64,3.97-8.42,4.57-5.87.73-6.87,3.44-6.91,3.56-1.97,12.29-10,17.12-12.63,18.7-.79.48-1.61.72-2.37.72ZM123.84,111.29l-1.08,5.28c-.11.55-2.86,13.52-10.89,22.48-4.94,5.5-5.1,8.87-4.6,9.47.04.07.4.03.85-.24,4.04-2.43,9.6-6.82,11.21-16.75.18-.67,1.63-4.95,9.56-5.94,2.87-.36,5.02-1.48,6.23-3.23.98-1.44,1.28-3.22.83-5.01l-.53-2.12,2.19.18c.78.07,3.26-.02,4.48-1.3.71-.75.98-1.85.78-3.37-.06-.51-.24-1.37-.68-1.54-1.17-.41-4.31,1.4-6.53,3.4l-4.54,4.07,2.02-5.75c.09-.26,9.14-26.27,7.59-42.32-1.5-15.39-7.71-65.48-25.01-65.48h-.17c-3.09.06-5.27.8-6.65,2.26-2.94,3.1-2.73,9.74-2.46,18.16,0,.19,0,.37.02.56,5.85,5.6,12.08,13.78,16.85,25.58,7.64,18.91,1.86,57.68,1.61,59.33l-.44,2.86-.64-.57ZM71.1,73.12c-.3.51-.58,1.03-.84,1.52-1.18,2.14-2.03,3.69-3.27,4.31l-.54.27c-2.86,1.41-4.48,2.33-4.48,4.76,0,4.1-1.32,9.54-3.78,11.55-.33.27-.69.53-1.06.81-1.78,1.32-3.64,2.69-4.28,6.29-.19,1.1-.35,2.12-.49,3.07-.53,3.5-.94,6.27-2.9,8.55-2.4,2.82-2.39,5.8.07,9.12,2.2,2.97,1.17,5.58.42,7.49-.78,1.97-1.21,3.06.64,4.78,2.43,2.26,20.29,7.28,38.02,3.74,14.91-2.99,25.41-10.98,31.2-23.75l2.56-5.65-.04-.04c-1.18-1.07-28.98-26.48-21.33-55.77,2.73-10.47,2.63-20.43,2.39-28.66-2.51-2.3-4.92-4.1-7.07-5.49-1.92-1.24-3.71-2.82-5.44-4.35-2.32-2.03-4.83-4.32-6.36-4.18-.15.02-.54.07-1.05.8-3.09,4.39-5.79,22.47-6.15,35.71-.2,7.58-2.59,10.55-4.34,12.72-1.4,1.74-1.99,2.46-1.08,5.11l.27.81c.98-.85,2.1-1.49,3.38-1.75,2.19-.47,4.6.27,7.06,2.18,9.59,7.41,27.46,38.38,28.22,39.7l1.18,2.05-2.35.27c-9.12,1.07-17.08-6.8-22.9-12.54-1.94-1.91-3.61-3.57-4.95-4.51-4.54-3.22-8.07-11.59-10.69-18.9ZM73.27,69.9c2.47,7.12,6.11,16.59,10.34,19.58,1.53,1.09,3.29,2.83,5.33,4.83,4.76,4.71,11.1,10.96,17.81,11.67-4.41-7.44-18.42-30.55-26.08-36.47-1.7-1.31-3.22-1.85-4.51-1.58-1.07.22-2.03.97-2.89,1.97ZM106.57,28.66c.16,7.75-.08,16.75-2.57,26.28-5.94,22.79,11.87,43.87,18.24,50.51,1.21-9.63,4.28-39.47-1.84-54.61-3.97-9.79-8.95-16.97-13.84-22.19Z"/>
        <path class="cls-1" d="M143.49,109.01l-1.74-2.59c.14-.1,14.33-9.86,17.38-24.55l3.05.64c-3.3,15.95-18.06,26.08-18.69,26.5Z"/>
        <path class="cls-1" d="M145.39,110.86l-2.25-2.17c.59-.61,14.67-15,28.38-16.11l.24,3.11c-12.54,1.01-26.24,15.03-26.37,15.17Z"/>
        <path class="cls-1" d="M201.13,177.14c-5.21-6.39-22.26-16.25-31.41-21.55l-3.45-2c-2.1-1.23-3.94-1.62-5.48-1.09-2.26.74-3.29,3.17-3.3,3.2l-2.89-1.18c.06-.15,1.56-3.74,5.16-4.97,2.46-.82,5.15-.37,8.09,1.35l3.43,1.99c9.99,5.78,26.7,15.45,32.27,22.29l-2.42,1.97Z"/>
        <path class="cls-1" d="M192.03,399.61c-6.71,0-11.76-3.26-14.21-9.17-3.72-8.97-.37-21.88,7.77-30.03,5.42-5.42,7.49-11.01,5.69-15.34-1.55-3.74-5.72-6.06-10.88-6.06h-16.37l-.46-.73c-1.55-2.49-3.08-4.69-4.66-6.71h0c-16.2-5.99-19.49-17.33-19.63-17.81l-.79-2.88c-2.19-.57-3.48-1.3-3.6-1.37l-2.46-1.41,2.51-1.32c1.3-.68,6.8-6.87,11.22-11.83,4.45-4.99,9.05-10.16,11.76-12.61,5.54-5,11.72-3.36,18.9-1.43,1.15.3,2.32.62,3.55.92.84.19,1.5.14,1.9-.18.57-.45.88-1.57.85-3.06-.05-4.76-3.09-11.33-6.03-13.02-1.58-.93-4-1.54-6.33-2.12-4.18-1.05-8.5-2.14-10.1-5.39-.88-1.79-.77-3.99.34-6.54,1.05-2.46,2.37-3.85,4.01-4.25,2.58-.64,4.94,1.3,7.67,3.53,2.55,2.08,5.43,4.44,8.59,4.67,4.46.24,6.18-1.73,8.24-4.08,1.52-1.74,3.25-3.72,6.1-4.57,1.99-.57,3.49-.32,4.38.81.93,1.16.78,2.9.31,4.52,2.32-1.06,3.87-2.38,4.66-4,1.31-2.68.84-6.31-1.65-12.53-.78-1.97-1.69-4.04-2.63-6.18-4.89-11.18-11-25.09-4.96-39.39,0-.01,0-.03.02-.04h-.02s.05-.15.05-.15c-1.38-1.44-2.37-3.85-1.16-7.76,1.42-4.73,2.62-5.58,3.61-5.79.77-.17,1.46.11,1.95.68,1.55,1.79.85,7.09-.65,11.66,2.29.88,5.53.67,6.76.47l1.18-.19.49,1.1c8.64,19.55,13.18,19.85,22.25,20.45,3.18.21,6.79.45,11.24,1.46,10.68,2.4,13.48,15.41,15.32,24.01.44,2.05.98,4.51,1.45,5.65.31-.4.8-1.13,1.49-2.48,2.13-4.14.98-10.03-3.43-17.52-7.62-12.9-22.32-25.65-22.47-25.78l-.47-.4-.06-.61c-3.82-35.93,21.85-56.5,42.47-73.04,10.54-8.45,19.65-15.75,22.66-23.33,6.92-17.44-1.36-25.38-12.83-36.36-3.09-2.96-6.28-6.01-9.48-9.53-7.81-8.59-6.28-12.47-3.04-17.42,2.53-3.85,5.38-8.22-.27-19.47-3.27-6.51-7.04-10.1-11.22-10.66-7.58-1.03-15.08,7.44-19.18,11.98l-.82.9c-4.4,4.88-12.16,19.97-15.44,31.7h0s0,0,0,0c.62,1.08,1.19,2.01,1.65,2.72,1.97,2.96,4.27,6.24,6.57,9.53,3.5,5,7.11,10.17,9.52,14.11,3.98,6.49,6.96,17.16,8.3,24.33.31,1.67.73,2.93,1.09,4.05,1.2,3.68,1.74,6.12-1.17,13.57-.77,1.95-2.13,4.93-3.81,8.63-6.73,14.77-19.26,42.26-19.38,60.12-.03,4.95-.47,9.53-3.42,9.56h-.02c-5.48,0-11.44-24.34-11.81-38.52-.22-8.21-.57-16.07-.91-23.42-.56-11.93-1.03-22.24-.75-30.78.21-7.28,2.7-16.02,5.11-24.46,2.24-7.85,4.35-15.25,4.35-20.53,0-2.29.45-5.15,1.34-8.5-4.05-7.2-10.18-19.77-13.87-27.36-1.62-3.31-3.13-6.44-3.4-6.85-.03-.06-6.22-8.73-15.32-8.73h-.24c-3.67.04-8.29,6.63-9.49,37.81-.24,7.07.44,17.19,1.04,26.13.39,5.82.73,10.84.77,14.26.09,4.62,2.51,13.08,5.07,22.04,2.08,7.27,4.24,14.78,5.53,21.47,1.6,8.32,7.54,25.83,16.73,49.3l-2.91,1.14c-6.55-16.73-14.79-38.96-16.89-49.85-1.26-6.55-3.4-14-5.46-21.21-2.62-9.16-5.1-17.81-5.19-22.85-.03-3.35-.39-8.57-.77-14.1-.6-9.01-1.29-19.22-1.04-26.45.73-18.95,2.82-40.71,12.56-40.81.1,0,.19,0,.28,0,9.17,0,16.06,7.31,17.95,10.16.33.52,1.34,2.58,3.58,7.17,3.26,6.68,8.39,17.23,12.3,24.51,3.76-11.61,10.98-25.27,15.24-30l.81-.89c4.48-4.97,12.8-14.18,21.92-12.98,5.26.71,9.84,4.87,13.59,12.36,6.46,12.86,2.79,18.49.1,22.59-2.52,3.84-4.04,6.16,2.74,13.61,3.13,3.43,6.28,6.45,9.32,9.37,11.89,11.38,21.27,20.37,13.58,39.76-3.32,8.35-12.72,15.89-23.6,24.61-19.92,15.96-44.68,35.81-41.39,69.67,2.66,2.35,15.45,13.96,22.66,26.15,4.98,8.48,6.16,15.39,3.52,20.53-1.49,2.9-2.75,4.83-4.73,4.55-2.27-.3-2.9-3.21-4.03-8.49-1.68-7.83-4.21-19.66-12.95-21.62-4.22-.95-7.71-1.19-10.77-1.39-10.27-.68-15.7-1.89-24.42-21.26-1.62.14-4.59.19-7.1-.76-5.22,13.13.25,25.6,5.08,36.62.96,2.19,1.87,4.29,2.66,6.29,2.08,5.21,3.72,10.64,1.55,15.06-1.54,3.12-4.76,5.34-9.87,6.8l-3.6,1.02,1.8-3.27c.94-1.7,1.61-3.81,1.45-4.47-.06.04-.39.03-1.05.22-1.98.59-3.2,1.99-4.63,3.63-2.27,2.6-4.86,5.54-10.81,5.14-4.14-.31-7.58-3.11-10.34-5.37-1.92-1.56-3.9-3.17-4.96-2.91-.59.15-1.26,1.02-1.88,2.46-.74,1.69-.87,2.97-.4,3.92.96,1.95,4.57,2.86,8.06,3.74,2.54.64,5.16,1.31,7.13,2.46,4.27,2.46,7.52,10.3,7.58,15.67.02,1.22-.13,2.3-.45,3.22,1.46-.99,3.64-1.74,7.2-1.74,11.05,0,33.91,22.91,36.49,25.53l1.03,1.04-.98,1.09c-.14.17-.29.32-.44.48l2.16.38-.92,1.87c-.51,1.01-12.68,24.77-48.61,24.77-6.55,0-12.5-.68-17.77-2.05.61.88,1.21,1.8,1.82,2.76h14.65c6.44,0,11.72,3.06,13.76,7.98,2.3,5.56-.02,12.39-6.36,18.73-7.31,7.31-10.36,18.75-7.1,26.63,1.37,3.3,4.44,7.25,11.33,7.25,15.12,0,61.01-22.53,98.64-74.6,14.82-20.5,22.68-64.78,23.53-69.76l.15-.76,3.08.53-.17.81c-.84,5-8.83,49.93-24.07,71.01-35.78,49.52-81.74,75.89-101.17,75.89ZM160.82,328.93c5.89,2.08,12.92,3.13,20.9,3.13,28.12,0,41.03-15.69,44.68-21.18-.16-.03-.3-.05-.45-.07-10.4,7.52-23.02,1.67-31.77-3.58-15.58-.74-24.79.68-34.32,2.46-3.46.65-6.69,1.01-9.6,1.08-4.12,1.08-7.65.93-10.29.43l1.52.73c.4.19,9.73,4.79,19.35,17ZM144.79,317.7c1.76,2.48,4.65,5.54,9.29,8.2-3.52-3.73-6.79-6.41-9.29-8.2ZM201.57,307.74c6.3,3.06,13.2,4.95,19.44,2.3-6.88-1.02-13.31-1.78-19.44-2.3ZM145.07,307.42c1.21.16,2.79.27,4.73.24.91-.29,1.74-.55,2.59-.93,18.78-7.87,32.44-9.16,40.69-3.86l.81.51c.4.26.81.51,1.23.77,9.23.52,19.07,1.62,30.05,3.37.34-.27.68-.56,1.01-.87-7.51-7.46-25.34-23.51-33.18-23.51-4.99,0-6.08,1.53-7.24,3.15-1.11,1.57-2.44,3.54-6.68,3.19-3.68-.3-5.62-1.31-7.32-2.21-1.86-.98-3.47-1.82-7.45-1.82-3.1,0-5.64,4.12-8.58,8.89-2.83,4.6-5.97,9.69-10.65,13.07ZM154.67,290.14c-1.94,2.12-4.07,4.51-6.18,6.88-3.99,4.48-7.05,7.89-9.19,10.05l1.05-.48c5.81-2.65,9.47-8.61,12.72-13.87.54-.88,1.07-1.75,1.6-2.57ZM180.48,302.77c-4.68,0-10.25,1.02-16.66,3.05,6.92-1.17,14.18-2.05,24.33-1.88-2.22-.78-4.78-1.17-7.67-1.17ZM164.54,282.34c4.58.03,6.65,1.12,8.65,2.16,1.58.83,3.08,1.61,6.13,1.87,2.17.13,2.81-.41,3.67-1.6-.84.3-1.94.42-3.36.09-1.26-.31-2.46-.63-3.63-.94-4.55-1.22-8.27-2.2-11.47-1.58ZM225.07,53.85c-.35,1.76-.52,3.31-.52,4.62,0,5.72-2.17,13.33-4.47,21.38-2.36,8.26-4.8,16.81-5,23.7-.28,8.42.2,18.67.75,30.54.34,7.37.7,15.25.91,23.48.39,15.24,5.86,31.92,8.44,35.06.24-.77.55-2.47.57-6.04.12-18.53,12.83-46.42,19.66-61.4,1.65-3.64,2.99-6.56,3.74-8.48,2.65-6.76,2.1-8.43,1.11-11.45-.39-1.21-.84-2.57-1.19-4.44-1.4-7.46-4.38-17.54-7.9-23.28-2.35-3.86-5.94-8.99-9.4-13.95-2.32-3.31-4.62-6.61-6.62-9.6-.03-.05-.06-.1-.1-.15ZM197.8,182.36c-.06.2-.13.4-.19.63-.32,1.03-.44,1.86-.41,2.53.3-1.18.49-2.25.6-3.16Z"/>
        <path class="cls-1" d="M207.81,181.96c-.28-.85-.62-1.7-1.08-2.69-5.85-12.77-27.15-36.01-34.24-38.76-2.3-.89-4.07-1.03-5.13-.38-.98.61-1.11,1.86-1.11,1.87l-3.12-.23c.02-.28.25-2.82,2.53-4.26,1.93-1.23,4.61-1.2,7.96.1,7.88,3.06,29.59,26.5,35.93,40.36.52,1.11.9,2.07,1.21,3.03l-2.96.97Z"/>
        <path class="cls-1" d="M317.77,254.12c-2.88,0-6.28-.73-10.13-2.74-5.42-2.83-11.12-7.3-17.15-12.03-10.67-8.38-21.71-17.04-31.89-17.04-.3,0-.61,0-.92.03l-.16-3.12c.36-.02.72-.03,1.09-.03,11.24,0,22.71,8.99,33.8,17.71,5.92,4.64,11.51,9.02,16.67,11.72,5.53,2.89,10.52,3.17,14.83.87,4.32-2.31,6.17-6.24,6.24-6.91.24-2.77,3.79-3.68,6.14-4.28.34-.09.64-.16.88-.23.54-.82,1.89-2.22,5.26-5.38l.51-.47c.56-.55,1.33-1.31,14.93-.46,3.25.21,3.51-1.17,3.76-3.83.1-1.01.18-1.98.65-2.73,1.14-1.82,5.58-2.82,13.92-4.12l.92-.14c.36-.06.47-.14.47-.14.03-.25-.42-1.44-.66-2.08-.51-1.34-1.03-2.71-.65-3.98.16-.51.42-1.08.71-1.69,1.05-2.17,1.6-3.6-.32-5.51-3.47-3.47-3.32-7.2-3.2-10.19.02-.53.04-1.04.04-1.55v-.94c.04-3.82-.22-5.45-1.95-5.64-4.49-.5-4.19-5.49-3.98-8.79.04-.75.1-1.48.1-2.14,0-2.26-4.03-3.47-4.07-3.49l-.64-.18-1.6-3.02c-51.84-6.32-81.91,19.07-82.21,19.33l-2.2-2.19c20.48-23.89,51.82-26.71,66.89-28.06,3.54-.32,6.35-.57,7.63-.98,1.66-.52,2.39-2.18,2.19-4.92-.41-5.13-3.87-10.39-5.28-10.61-4.81-.72-9.66-11.85-10.59-14.07-.05-.08-8.76-16.22-52.63.85-44.64,17.37-48.76,63.33-48.79,63.79l-3.12-.24c.04-.48,4.34-48.38,50.78-66.45,46.9-18.25,56.22,0,56.6.78,2.38,5.69,6.16,11.95,8.2,12.26,3.74.56,7.49,7.86,7.92,13.44.33,4.2-1.26,7.17-4.35,8.14-1.61.51-4.41.76-8.29,1.1-11.69,1.05-33.47,3.01-51.78,15.41,14.32-6.99,38.35-14.63,70.23-10.58l.8.1,1.75,3.3c1.64.6,5.69,2.46,5.69,6.27,0,.72-.04,1.52-.1,2.33-.24,3.68-.11,5.35,1.21,5.5,4.81.53,4.76,5.49,4.73,8.78v.9c0,.54-.03,1.1-.05,1.67-.1,2.76-.21,5.36,2.3,7.87,3.58,3.57,1.92,7.02.92,9.08-.22.44-.42.85-.53,1.23-.06.31.34,1.36.57,1.98.59,1.56,1.26,3.32.4,4.81-.51.86-1.39,1.4-2.64,1.6l-.93.14c-2.64.41-10.67,1.67-11.82,2.77-.03.1-.09.81-.13,1.29-.22,2.29-.65,7.01-7.06,6.65-8.37-.52-11.89-.39-12.79-.22l-.32.3c-3.22,3.02-4.34,4.21-4.68,4.67-.28,1.03-1.47,1.34-2.82,1.68-2.34.6-3.62,1.11-3.8,1.54-.16,1.88-2.86,6.61-7.7,9.27-1.93,1.07-4.55,1.99-7.79,1.99Z"/>
        <path class="cls-1" d="M103.37,499.26l-2.58-1.76c29.39-42.99,24.84-95.31,15.4-126.91-9.26-7.07-15.79-14.97-15.67-23.18.02-1.2.06-4.85,2.46-5.64,2.46-.78,4.71,2.23,5.45,3.23,3.25,4.33,7.15,12.73,10.47,23.81,21.29,15.69,57.4,27.57,57.91,27.73l-.96,2.97c-2.03-.66-34-11.17-55.63-26.02,8.66,32.53,11.64,84.07-16.86,125.76ZM103.89,344.81c.03.19-.23.9-.25,2.65-.08,6.14,4.28,12.22,10.88,17.89-.86-2.56-1.76-4.95-2.66-7.14-3.83-9.34-6.91-12.96-7.97-13.4Z"/>
      </g>
      <path class="cls-1" d="M258.6,490.28c-30.39-61.99,13.02-144.66,13.46-145.49l2.75,1.47c-.44.81-43.09,82.1-13.41,142.64l-2.8,1.38Z"/>
    </g>
  </g>
</svg>